<svg enable-background="new 0 0 512 512" height="512" viewBox="0 0 512 512" width="512" xmlns="http://www.w3.org/2000/svg"><g fill="#fff" stroke="#fff" stroke-miterlimit="10" stroke-width="2"><path d="m345.098 154.407-129.489-44.666c-12.267-4.194-26.003-3.355-37.746 2.307l-6.501 3.145c-8.807 4.299-19.188 4.928-28.414 1.573l-11.114-3.984c-.524-.315-1.049-.629-1.573-.839l-66.265-22.543c-1.573-.524-3.355-.419-4.823.315s-2.621 1.992-3.145 3.565l-55.676 162.412c-1.153 3.25.629 6.815 3.879 7.969l66.37 22.752c.734.315 1.363.419 2.097.419.944 0 1.887-.21 2.726-.629 1.468-.734 2.621-1.992 3.145-3.565l53.578-156.226 6.71 2.412c12.372 4.404 26.317 3.565 38.165-2.202l6.501-3.145c8.703-4.299 18.978-4.928 28.1-1.782l124.666 42.988c-.944 5.452-3.565 14.469-10.38 19.188-6.081 4.194-14.889 4.404-26.003.524l-54.417-18.558c-1.678-.524-3.46-.419-5.033.419-1.573.839-2.621 2.307-3.145 3.984-.105.315-8.178 30.092-33.342 43.513-15.937 8.598-35.649 8.912-58.611 1.048-3.25-1.153-6.815.629-7.969 3.879-1.153 3.25.629 6.815 3.879 7.969 12.267 4.194 23.906 6.291 34.705 6.291 12.372 0 23.696-2.726 33.971-8.283 22.438-12.058 33.237-34.076 37.327-44.981l48.336 16.566c15.203 5.242 27.68 4.509 37.327-2.097 15.518-10.695 16.252-32.713 16.357-33.657.106-2.726-1.676-5.242-4.193-6.081zm-276.279 118.061-54.522-18.663 51.586-150.459 53.054 18.139c.419.21.839.419 1.258.629l.21.105z"/><path d="m511.39 247.409-75.702-153.815c-.734-1.468-1.992-2.621-3.565-3.145s-3.355-.419-4.823.315l-63.015 30.826c-3.146 1.573-4.404 5.242-2.936 8.388l73.395 149.935-24.64 22.543c-20.865 19.187-44.456 35.229-69.935 47.707l-120.682 59.03c-3.355 1.678-7.13 1.887-10.695.629s-6.396-3.775-8.073-7.13c-1.678-3.355-1.887-7.13-.629-10.695s3.775-6.396 7.13-8.073l67.418-33.028c3.146-1.573 4.404-5.242 2.936-8.388-1.573-3.145-5.347-4.404-8.388-2.936l-65.95 32.294-33.237 16.252c-6.92 3.355-15.413.524-18.768-6.396s-.524-15.308 6.396-18.768l96.881-47.392c3.145-1.573 4.404-5.242 2.936-8.388-1.573-3.145-5.347-4.404-8.388-2.936l-71.717 35.125-25.164 12.267-11.848 5.767c-6.92 3.355-15.413.524-18.768-6.396s-.524-15.413 6.396-18.768l11.953-5.872 86.711-42.464c3.145-1.573 4.404-5.242 2.936-8.388-1.573-3.146-5.347-4.404-8.388-2.936l-55.675 27.261-31.036 15.203c-3.355 1.678-7.13 1.887-10.695.629s-6.396-3.775-8.073-7.13c-1.678-3.355-1.887-7.13-.629-10.695s3.775-6.396 7.13-8.073l46.029-22.543c3.145-1.573 4.404-5.242 2.936-8.388-1.573-3.145-5.347-4.404-8.388-2.936l-46.029 22.543c-6.396 3.146-11.219 8.598-13.526 15.308s-1.887 13.945 1.258 20.341c2.412 5.033 6.396 9.017 11.219 11.638-7.969 7.864-10.38 20.131-5.242 30.616 4.613 9.436 14.05 14.889 23.906 14.889 1.153 0 2.307-.105 3.46-.21-.839 5.242-.21 10.8 2.307 16.042 4.613 9.436 14.05 14.889 23.906 14.889 3.879 0 7.864-.839 11.638-2.726l11.429-5.662c-.524 4.928.315 9.856 2.621 14.364 3.145 6.396 8.598 11.219 15.308 13.526 2.831.944 5.767 1.468 8.703 1.468 3.984 0 7.969-.944 11.638-2.726l120.682-59.03c26.632-13.001 51.062-29.777 72.871-49.804l27.366-25.164 62.176-30.406c3.142-1.573 4.401-5.243 2.933-8.388zm-66.056 25.583-69.934-142.91 51.796-25.269 69.83 142.91z"/></g></svg>