<svg enable-background="new 175 0 50 50" height="50" viewBox="175 0 50 50" width="50" xmlns="http://www.w3.org/2000/svg"><g fill="#fff"><path d="m224.939 10.289-4.058-9.796c-.169-.407-.635-.601-1.042-.432l-13.44 5.567c-.407.169-.601.635-.432 1.042l.106.256-21.931 9.084c-.196.081-.351.236-.432.432s-.081.415 0 .611l.106.256-8.323 3.448c-.407.169-.601.635-.432 1.042l2.413 5.825c.081.196.236.351.432.432.098.04.202.061.305.061.104 0 .208-.02.305-.061l8.323-3.448.106.256c.127.307.424.493.737.493.102 0 .205-.02.305-.061l19.719-8.168c.407-.169.601-.635.432-1.042s-.635-.601-1.042-.432l-18.982 7.863-2.625-6.337 21.194-8.779 3.341 8.066c.081.196.236.351.432.432.098.04.202.061.305.061.104 0 .208-.02.305-.061l2.948-1.221c.001 0 10.492-4.346 10.492-4.346.196-.081.351-.236.432-.432.082-.196.082-.415.001-.611zm-38.71 12.845-7.586 3.142-1.802-4.351 7.586-3.142zm24.964-8.015-3.341-8.066s-.106-.256-.106-.256l1.474-.611 3.447 8.322zm2.949-1.221-3.447-8.322 9.018-3.735 3.447 8.322z"/><path d="m205.049 34.062h.014c.441 0 .798-.357.798-.798s-.357-.798-.798-.798h-.458l-.725-2.607c-.096-.345-.41-.584-.769-.584h-2.313v-5.831l2.619-1.085c.407-.169.601-.635.432-1.042s-.635-.6-1.042-.432l-3.112 1.289c-.002.001-.005.002-.007.003l-3.103 1.285c-.407.169-.601.635-.432 1.042.127.307.424.493.737.493.102 0 .205-.02.305-.061l2.008-.832v5.17h-2.313c-.358 0-.673.239-.769.584l-.725 2.607h-.458c-.441 0-.798.357-.798.798s.357.798.798.798h.014l-4.15 14.927c-.118.425.13.864.555.982.424.118.864-.131.982-.555l4.269-15.354h2.595v15.14c0 .441.357.798.798.798s.798-.357.798-.798v-15.14h2.595l4.269 15.354c.097.354.418.585.767.585.071 0 .143-.009.214-.029.425-.118.673-.558.555-.982 0-.001-4.15-14.927-4.15-14.927zm-7.998-1.596.444-1.596h5.01l.444 1.596z"/></g></svg>