<svg enable-background="new 0 0 106.045 101.23" height="101.23" viewBox="0 0 106.045 101.23" width="106.045" xmlns="http://www.w3.org/2000/svg"><g fill="#58595b"><path d="m61.724 91.78c-.832.225-1.681.425-2.524.598-2.205.449-3.628 2.602-3.178 4.807.025.126.057.246.093.366.602 1.993 2.634 3.236 4.715 2.812 1.006-.206 2.02-.446 3.014-.713 2.173-.585 3.461-2.821 2.876-4.995-.587-2.177-2.822-3.46-4.996-2.875z"/><path d="m33.318 89.511c-.787-.351-1.572-.729-2.334-1.128-1.996-1.041-4.458-.268-5.499 1.729-.513.981-.585 2.077-.289 3.061.306 1.014 1.003 1.908 2.016 2.437.909.474 1.844.927 2.781 1.345 2.055.917 4.465-.004 5.383-2.059.918-2.057-.004-4.466-2.058-5.385z"/><path d="m47.332 93.093c-.858-.068-1.727-.166-2.581-.286-2.228-.317-4.29 1.233-4.607 3.462-.086.605-.034 1.198.132 1.747.444 1.472 1.708 2.629 3.331 2.86 1.016.144 2.049.259 3.071.34 2.243.182 4.208-1.49 4.389-3.733.18-2.244-1.492-4.209-3.735-4.39z"/><path d="m74.85 85.702c-.708.487-1.442.96-2.182 1.406-1.629.981-2.324 2.923-1.799 4.663.096.319.233.632.413.931 1.162 1.928 3.666 2.547 5.594 1.387.878-.53 1.752-1.094 2.594-1.673 1.854-1.276 2.323-3.813 1.047-5.667-1.276-1.855-3.814-2.324-5.667-1.047z"/><path d="m90.869 74.681c-1.826-1.316-4.373-.903-5.689.921-.502.698-1.035 1.391-1.579 2.055-.894 1.092-1.127 2.507-.748 3.763.226.748.668 1.44 1.318 1.973 1.741 1.426 4.309 1.17 5.735-.571.65-.793 1.285-1.618 1.885-2.45 1.316-1.828.903-4.374-.922-5.691z"/><path d="m96.573 59.837c-2.16-.631-4.422.61-5.052 2.771-.242.827-.512 1.658-.801 2.469-.306.854-.311 1.743-.067 2.549.36 1.195 1.262 2.209 2.526 2.662 2.119.76 4.452-.341 5.212-2.459.346-.966.667-1.955.953-2.94.63-2.159-.61-4.423-2.771-5.052z"/><path d="m104.219 33.287-5.356 1.664c-4.063-12.455-12.621-22.691-24.204-28.907-1.166-.626-2.348-1.202-3.545-1.73-.009-.004-.016-.008-.023-.013-.05-.022-.102-.041-.152-.062-10.56-4.621-22.247-5.497-33.449-2.464-.087.018-.175.034-.263.059-.374.103-.752.213-1.124.324-.611.185-1.227.384-1.83.591-.071.024-.139.055-.208.082-10 3.465-18.516 9.852-24.591 18.385-.021.029-.045.055-.066.084-.593.834-1.169 1.698-1.712 2.57-.035.057-.062.114-.095.172-.542.879-1.063 1.777-1.556 2.694-5.035 9.384-6.956 19.868-5.645 30.224.002.023.005.046.008.069.002.017.006.033.009.051.357 2.767.942 5.525 1.763 8.248 2.157 7.152 5.757 13.583 10.698 19.115 1.499 1.678 4.075 1.822 5.753.323 1.679-1.499 1.825-4.076.324-5.753-2.466-2.761-4.531-5.793-6.183-9.059-.019-.04-.033-.081-.053-.12-.388-.771-.758-1.561-1.099-2.352-.002-.006-.005-.01-.007-.015-.622-1.456-1.166-2.954-1.63-4.493-5.34-17.709 1.472-36.239 15.606-46.6.208-.152.418-.306.628-.453 3.63-2.559 7.722-4.589 12.202-5.939 4.507-1.359 9.066-1.93 13.531-1.796.072.003.143.005.213.007.272.009.544.024.816.038.109.006.219.012.328.019 13.921.871 26.76 8.603 33.966 20.751.004.007.007.015.011.021.107.181.212.36.316.543.012.021.026.039.038.06 1.379 2.418 2.539 5.006 3.441 7.744l-5.355 1.665c-1.487.462-1.634 1.532-.328 2.378l11.655 7.549c1.306.847 2.865.362 3.46-1.074l5.324-12.826c.598-1.438-.129-2.236-1.616-1.774z"/></g><path d="m33.576 42.485c-4.875.423-8.482 4.722-8.06 9.598.426 4.874 4.725 8.485 9.6 8.059 4.875-.423 8.482-4.721 8.058-9.599-.421-4.874-4.72-8.484-9.598-8.058z" fill="none"/><path d="m63.551 63.001c-2.751 1.703-3.705 5.412-2.114 8.229 1.696 2.999 5.512 4.012 8.466 2.266 2.916-1.725 3.881-5.488 2.157-8.404-1.747-2.947-5.579-3.905-8.509-2.091z" fill="none"/><g fill="#616e7d"><path d="m54.703 58.201c.548-1.613.905-3.307 1.051-5.051l-3.483-1.687c.004-.565-.016-1.133-.067-1.705-.014-.198-.041-.391-.063-.588l3.277-2.071c-.341-1.72-.883-3.363-1.603-4.899l-3.871.281c-.378-.671-.799-1.315-1.258-1.925l1.801-3.426c-1.138-1.294-2.43-2.449-3.843-3.439l-3.209 2.175c-.657-.388-1.341-.736-2.049-1.04l-.152-3.867c-1.613-.548-3.307-.905-5.05-1.055l-1.688 3.487c-.564-.005-1.13.017-1.704.066-.199.017-.394.042-.589.066l-2.068-3.281c-1.722.344-3.366.886-4.903 1.605l.282 3.87c-.67.379-1.315.799-1.923 1.259l-3.429-1.803c-1.297 1.14-2.451 2.431-3.437 3.846l2.177 3.208c-.39.658-.741 1.341-1.043 2.047l-3.869.152c-.548 1.613-.903 3.305-1.051 5.052l3.485 1.687c-.004.565.015 1.133.064 1.705.018.198.042.391.069.588l-3.28 2.069c.345 1.72.884 3.364 1.605 4.9l3.869-.28c.379.67.8 1.312 1.258 1.924l-1.802 3.425c1.138 1.299 2.433 2.453 3.845 3.44l3.208-2.176c.659.391 1.343.74 2.049 1.043l.152 3.868c1.613.546 3.303.905 5.047 1.052l1.692-3.485c.562.003 1.132-.016 1.705-.065.197-.016.391-.043.584-.068l2.069 3.283c1.725-.345 3.366-.885 4.904-1.604l-.28-3.872c.667-.381 1.31-.8 1.923-1.259l3.427 1.802c1.294-1.14 2.449-2.431 3.437-3.845l-2.173-3.208c.386-.659.735-1.343 1.041-2.05zm-20.355 5.745c-6.967 0-12.633-5.667-12.633-12.633 0-6.965 5.666-12.633 12.633-12.633 6.965 0 12.632 5.667 12.632 12.633-.001 6.966-5.667 12.633-12.632 12.633z"/><path d="m22.617 51.313c0 6.468 5.261 11.73 11.731 11.73 6.468 0 11.729-5.263 11.729-11.73 0-6.468-5.261-11.731-11.729-11.731-6.471 0-11.731 5.263-11.731 11.731zm20.558-.771c.424 4.878-3.183 9.176-8.058 9.599-4.875.427-9.174-3.185-9.6-8.059-.422-4.876 3.185-9.174 8.06-9.598 4.877-.425 9.176 3.185 9.598 8.058z"/><path d="m56.712 68.171c-.116 5.543 4.299 10.147 9.842 10.263 5.543.117 10.147-4.299 10.262-9.841.117-5.543-4.297-10.147-9.842-10.263-5.543-.116-10.147 4.299-10.262 9.841zm15.348-3.079c1.725 2.916.759 6.679-2.157 8.404-2.954 1.746-6.77.733-8.466-2.266-1.591-2.817-.637-6.526 2.114-8.229 2.93-1.814 6.762-.856 8.509 2.091z"/><path d="m82.92 69.976c.114-1.17.104-2.348-.036-3.527l-2.735-.654c-.144-.717-.347-1.432-.603-2.133l2.004-1.978c-.241-.532-.513-1.057-.817-1.569-.301-.51-.629-.999-.98-1.467l-2.699.806c-.491-.566-1.018-1.085-1.582-1.554l.747-2.712c-.966-.69-1.995-1.268-3.074-1.731l-1.938 2.049c-.698-.242-1.415-.426-2.14-.552l-.716-2.73c-1.167-.113-2.347-.1-3.52.044l-.66 2.734c-.718.139-1.428.342-2.128.601l-1.98-2.003c-.528.239-1.057.507-1.568.813-.512.301-1 .631-1.467.978l.803 2.703c-.564.491-1.084 1.018-1.552 1.581l-2.712-.745c-.692.962-1.268 1.992-1.731 3.069l2.047 1.94c-.241.699-.42 1.415-.548 2.141l-2.727.716c-.115 1.167-.103 2.348.037 3.525l2.739.652c.14.721.341 1.432.596 2.136l-2.003 1.977c.24.533.509 1.055.813 1.564.304.514.631 1.004.98 1.47l2.702-.804c.489.564 1.021 1.083 1.581 1.551l-.743 2.716c.964.689 1.99 1.269 3.066 1.726l1.942-2.046c.7.244 1.41.425 2.142.549l.714 2.729c1.165.111 2.348.103 3.524-.038l.652-2.738c.72-.139 1.432-.342 2.132-.601l1.986 2.004c.528-.237 1.051-.509 1.562-.812.513-.303.998-.631 1.466-.982l-.803-2.699c.564-.49 1.084-1.02 1.552-1.581l2.715.744c.69-.964 1.27-1.993 1.727-3.07l-2.047-1.942c.24-.694.426-1.409.552-2.138zm-16.377 8.893c-5.782-.121-10.388-4.924-10.266-10.707.12-5.782 4.922-10.388 10.706-10.267 5.782.121 10.387 4.924 10.268 10.707-.121 5.783-4.923 10.389-10.708 10.267z"/></g><path d="m21.714 51.313c0 6.966 5.666 12.633 12.633 12.633 6.965 0 12.632-5.667 12.632-12.633 0-6.965-5.667-12.633-12.632-12.633-6.967 0-12.633 5.668-12.633 12.633zm24.362 0c0 6.468-5.261 11.73-11.729 11.73-6.47 0-11.731-5.263-11.731-11.73 0-6.468 5.261-11.731 11.731-11.731 6.469 0 11.729 5.263 11.729 11.731z" fill="#aad4c8"/><path d="m56.277 68.162c-.122 5.783 4.484 10.586 10.266 10.707 5.784.122 10.586-4.484 10.708-10.267.119-5.783-4.486-10.586-10.268-10.707-5.784-.121-10.586 4.485-10.706 10.267zm20.539.431c-.116 5.542-4.72 9.958-10.262 9.841-5.542-.116-9.957-4.72-9.842-10.263s4.719-9.957 10.262-9.841c5.544.116 9.959 4.721 9.842 10.263z" fill="#82bfab"/><path d="m60.76 28.556c-2.26 1.399-3.043 4.445-1.736 6.758 1.393 2.463 4.527 3.295 6.953 1.861 2.395-1.417 3.188-4.507 1.771-6.902-1.434-2.42-4.582-3.207-6.988-1.717z" fill="none"/><path d="m55.143 32.802c-.095 4.552 3.531 8.334 8.083 8.429 4.552.096 8.333-3.531 8.429-8.082.096-4.552-3.529-8.334-8.084-8.429-4.552-.096-8.333 3.53-8.428 8.082zm12.605-2.529c1.416 2.395.624 5.485-1.771 6.902-2.426 1.434-5.56.602-6.953-1.861-1.306-2.313-.523-5.36 1.736-6.758 2.406-1.49 5.554-.703 6.988 1.717z" fill="#616e7d"/><path d="m76.668 34.285c.093-.961.085-1.929-.03-2.897l-2.247-.537c-.118-.589-.285-1.176-.495-1.752l1.646-1.624c-.198-.437-.421-.868-.671-1.288-.247-.419-.517-.82-.805-1.205l-2.216.662c-.403-.465-.836-.891-1.299-1.276l.613-2.228c-.793-.567-1.638-1.041-2.524-1.422l-1.591 1.682c-.573-.199-1.162-.35-1.758-.453l-.588-2.242c-.958-.093-1.928-.082-2.891.036l-.542 2.245c-.59.114-1.173.28-1.748.494l-1.626-1.645c-.433.196-.868.416-1.288.668-.42.248-.822.518-1.205.803l.66 2.22c-.463.404-.89.836-1.275 1.298l-2.228-.612c-.568.79-1.041 1.636-1.421 2.52l1.681 1.593c-.198.574-.345 1.162-.45 1.759l-2.239.588c-.095.959-.085 1.928.03 2.895l2.25.535c.115.592.28 1.176.49 1.755l-1.645 1.624c.197.437.418.866.668 1.285.25.422.518.825.805 1.207l2.219-.661c.402.463.839.889 1.298 1.274l-.61 2.23c.792.566 1.635 1.042 2.518 1.418l1.595-1.68c.575.2 1.158.349 1.76.451l.586 2.241c.957.091 1.928.085 2.895-.031l.535-2.248c.591-.114 1.176-.281 1.751-.494l1.631 1.646c.433-.195.863-.418 1.283-.667.421-.249.82-.518 1.204-.807l-.66-2.216c.464-.403.89-.838 1.275-1.299l2.23.611c.567-.792 1.043-1.637 1.418-2.521l-1.681-1.595c.197-.57.35-1.157.453-1.756zm-13.45 7.304c-4.749-.099-8.532-4.044-8.432-8.794.098-4.749 4.043-8.532 8.793-8.432 4.749.099 8.531 4.044 8.433 8.794-.1 4.749-4.043 8.532-8.794 8.432z" fill="#616e7d"/><path d="m54.786 32.795c-.1 4.75 3.683 8.695 8.432 8.794 4.751.1 8.695-3.683 8.795-8.432.098-4.75-3.684-8.695-8.433-8.794-4.751-.1-8.696 3.683-8.794 8.432zm16.868.354c-.095 4.551-3.876 8.178-8.429 8.082-4.552-.095-8.178-3.877-8.083-8.429s3.876-8.178 8.428-8.083c4.555.096 8.181 3.878 8.084 8.43z" fill="#82bfab"/></svg>