<svg enable-background="new 0 0 50 50" height="50" viewBox="0 0 50 50" width="50" xmlns="http://www.w3.org/2000/svg"><g fill="#58595b"><path d="m48.853 30.7c-.015.015-.029.023-.044.031-.051.023-.096.039-.147.039-.007 0-.007 0-.007 0-.14 0-.272-.093-.331-.232l-.147-.363-7.246-17.387-7.495 17.603-.162.378c-.059.131-.176.216-.301.224-.015.008-.022.008-.037.008-.051 0-.103-.015-.147-.039-.044-.023-.088-.054-.118-.093-.103-.108-.132-.27-.066-.417l.147-.348 7.753-18.213.088-.216c.059-.139.191-.232.338-.232.154.031.279.093.338.232l.088.216 7.517 18.036.126.301c.074.178.015.379-.147.472z"/><path d="m22.281 33.681h5.144v6.704h-5.144z"/><path d="m25.294 6.871v2.603h-.882v-2.572c0-.008 0-.008 0-.015 0-.008 0-.008 0-.015.287.076.595.076.882-.001z"/><path d="m1.022 30.761c-.044 0-.081-.008-.125-.031-.015-.008-.029-.015-.044-.031.029.008.059.015.088.023.03.008.052.024.081.039z"/><path d="m17.042 30.862s-.073.066-.117.09c-.059.023-.199.042-.199.042-.125-.008-.235-.093-.294-.224l-.162-.378-7.488-17.605-7.253 17.387-.147.363c-.066.147-.213.232-.36.224-.029-.015-.051-.031-.081-.039-.029-.008-.059-.015-.088-.023-.154-.093-.22-.294-.147-.471l.125-.301 7.517-18.036.088-.216c.059-.139.191-.232.338-.232s.279.093.338.232l.088.216 7.76 18.213.147.348c.06.139.03.302-.065.41z"/><path d="m26.168 10.918v.641c0 .209-.169.386-.367.386h-1.756c-.206 0-.367-.178-.367-.386v-.641c0-.209.162-.386.367-.386h1.756c.198 0 .367.178.367.386z"/><path d="m27.535 40.98v.386c0 .216-.162.386-.367.386h-4.63c-.206 0-.367-.17-.367-.386v-.386z"/><path d="m19.988 43.375h9.737v1.661h-9.737z"/><path d="m35.508 47.26c0 .324-.257.595-.566.595h-20.171c-.316 0-.573-.27-.573-.595 0-.162.059-.309.169-.425s.25-.178.404-.178h20.171c.147 0 .287.062.397.178s.169.263.169.425z"/><path d="m17.758 31.597c-.634 1.029-2.041 2.719-4.831 3.57-1.091.336-2.314.504-3.634.515-1.241-.011-2.393-.145-3.414-.436-2.895-.828-4.276-2.618-4.857-3.648h16.736z"/><path d="m13.473 35.682v1.119c0 .302-.194.56-.44.56h-7.251c-.238 0-.44-.257-.44-.56v-1.041c.114.045.229.078.343.112.264.078.537.145.818.201.158.034.326.067.493.09.167.034.343.056.519.078h.018c.546.067 1.126.101 1.716.101h.044c.66 0 1.294-.045 1.901-.134.097-.011.185-.022.273-.045.185-.022.361-.045.537-.09.176-.034.352-.078.519-.123.026 0 .044 0 .07-.011.185-.045.37-.09.546-.145.114-.034.228-.067.334-.112z"/><path d="m27.535 42.394v.386h-5.364v-.386c0-.216.162-.386.367-.386h4.63c.206 0 .367.17.367.386z"/><path d="m27.131 31.248v.386c0 .216-.162.386-.367.386h-3.821c-.206 0-.367-.17-.367-.386v-.386z"/><path d="m27.403 30.723h-5.1l.897-17.364h3.306z"/><path d="m26.999 32.816v.386h-4.291v-.386c0-.216.162-.386.367-.386h3.557c.205 0 .367.17.367.386z"/><path d="m26.977 12.455v.332c-.081.039-.169.054-.265.054h-3.718c-.096 0-.184-.015-.265-.054v-.332c0-.216.162-.386.367-.386h3.513c.206 0 .368.17.368.386z"/><ellipse cx="24.923" cy="4.398" rx="1.914" ry="2.011"/><path d="m49.324 31.634c-.634 1.029-2.041 2.719-4.831 3.57-1.091.336-2.314.504-3.634.515-1.241-.011-2.393-.145-3.414-.436-2.895-.828-4.276-2.618-4.857-3.648h16.736z"/><path d="m45.039 35.719v1.119c0 .302-.194.56-.44.56h-7.251c-.238 0-.44-.257-.44-.56v-1.041c.114.045.229.078.343.112.264.078.537.145.818.201.158.034.326.067.493.09.167.034.343.056.519.078h.018c.546.067 1.126.101 1.716.101h.044c.66 0 1.294-.045 1.901-.134.097-.011.185-.022.273-.045.185-.022.361-.045.537-.09.176-.034.352-.078.519-.123.026 0 .044 0 .07-.011.185-.045.37-.09.546-.145.114-.034.228-.068.334-.112z"/><path d="m26.029 6.539-.008 3.36h14.94v-.656z"/><ellipse cx="40.801" cy="9.45" rx="1.171" ry="1.231"/><path d="m23.349 6.539.007 3.36h-14.939v-.656z"/><ellipse cx="8.577" cy="9.45" rx="1.171" ry="1.231"/></g></svg>