<svg enable-background="new 0 0 50 50" height="50" viewBox="0 0 50 50" width="50" xmlns="http://www.w3.org/2000/svg"><path d="m20.115 8.648c-1.875 1.191-2.994 3.278-2.994 5.5v6.051h15.704v-6.099c-.637-5.435-6.819-9.194-12.71-5.452z" fill="none"/><path d="m9.813 49.015h30.374c1.995 0 3.664-1.37 4.134-3.218h-38.642c.471 1.848 2.142 3.218 4.134 3.218z" fill="#58595b"/><path d="m5.541 44.961c0 .289.052.568.138.836h38.642c.086-.268.138-.547.138-.836v-.538h-38.918z" fill="#fff"/><path d="m39.034 15.383c0-10.102-10.729-17.748-21.386-12.135-4.148 2.185-6.682 6.556-6.682 11.245v6.069h-2.755c-1.475 0-2.669 1.194-2.669 2.669v21.193h38.917v-21.194c0-1.474-1.195-2.669-2.669-2.669h-2.11-.53zm-12.244 19.862v3.369h-3.579v-3.369c-1.536-.946-2.283-3.047-.937-5.115.132-.202.308-.379.509-.511 2.744-1.808 5.644.115 5.644 2.716 0 1.235-.659 2.306-1.637 2.91zm6.034-14.684h-15.704v-6.051c0-2.221 1.119-4.309 2.994-5.5 5.892-3.742 12.073.018 12.709 5.453v6.098z" fill="#58595b"/><g fill="#fff"><path d="m5.541 42.926h38.917v1.15h-38.917z"/><path d="m5.541 41.445h38.917v1.15h-38.917z"/><path d="m5.541 23.466h38.917v1.15h-38.917z"/><path d="m5.541 25h38.917v1.15h-38.917z"/><path d="m5.541 26.526h38.917v1.15h-38.917z"/></g></svg>