<svg enable-background="new 0 0 930.855 930.856" height="930.856" viewBox="0 0 930.855 930.856" width="930.855" xmlns="http://www.w3.org/2000/svg"><g fill="#7d7e81"><path d="m667.87 93.278c-87.853 0-164.328 52.3-203.778 129.4-39.543-77.1-115.925-129.4-203.778-129.4-84.123 0-160.504 52.8-200.794 131-47.937 92.9-31.523 195.3 6.808 288.5.093.199.187.4.28.6h190.348l43.647-84.299c8.86-17.101 31.895-17.2 40.755-.101l83.569 157.95 120.489-284.05c8.86-20.1 35.999-18.7 42.994 2.2l70.506 208.2h185.195c.094-.199 17.557-.4 17.65-.6 38.424-93.201 54.745-195.601 6.901-288.5-40.287-78.1-116.762-130.9-200.792-130.9z"/><path d="m615.453 529.278-49.526-153.35-115.583 273.344c-8.7 18.4-34.416 19.355-44.416 1.656l-88-175-23.074 56.951c-4.399 7.9-12.8 12.9-21.899 12.9h-188.6c103.4 141.699 304.1 287.6 363.9 329.4 10.3 7.199 24.1 7.199 34.401 0 59.8-41.9 260.5-187.801 363.899-329.4h-207.5c-10.602-.001-20.002-6.601-23.602-16.501z"/></g></svg>