<svg enable-background="new 0 0 532.789 532.739" height="532.739" viewBox="0 0 532.789 532.739" width="532.789" xmlns="http://www.w3.org/2000/svg"><path d="m255.348 125.417c4.723-2.593 8.56-3.607 11.554-3.655-3.598-3.817-7.178-7.696-10.252-11.956-3.334-4.621-6.327-9.49-9.248-14.378-6.219-10.409-12.026-21.065-17.728-31.763-5.798-10.878-11.458-21.83-17.039-32.821 24.632-5.62 50.072-7.011 75.225-4.902 24.315 2.039 48.493 7.207 71.293 15.957l.125-.326c.291.11.585.215.875.326l8.957-23.34c-22.783-8.744-46.823-14.201-71.068-16.809-25.005-2.689-50.452-2.381-75.298 1.643-23.029 3.73-45.611 10.651-66.838 20.315-20.368 9.274-39.198 21.252-56.813 35.01-10.281 8.029-20.421 16.433-29.516 25.804l17.43 16.918.509.494c7.251-7.469 15.286-14.205 23.408-20.698 8.498-6.792 17.242-13.29 26.436-19.115 6.592-4.176 13.389-8.03 20.357-11.544 12.509 20.315 25.134 40.574 38.317 60.46 5.747 8.668 11.467 17.526 18.061 25.585 0 0 0 0 0-.001 4.633 5.77 9.984 10.983 15.254 16.162 4.871-15.124 18.949-23.495 25.999-27.366 4.722-2.593-7.05 3.871 0 0z" fill="#7b7c7f"/><path d="m327.868 194.489-17.562 7.742-10.843 4.781-7.557 3.331c8.561 7.61 17.146 15.194 25.782 22.717-5.42 11.613-3.7 26.812 6.396 36.156l5.138 4.758 9.599 8.891 8.699 8.052 14.082 13.041c3.677 3.404 9.978 3.846 14.398 1.751 1.898-.899 3.499-2.229 3.95-4.348.412-1.938.227-3.938.32-5.903.07-1.479.321-2.484 1.801-3.002 1.799-.629 3.692-.901 5.463-1.634 2.045-.848 4.347-2.288 5.067-4.502.678-2.083.214-4.315.401-6.455.434-4.959 5.953-3.853 9.328-5.441 1.954-.921 3.18-2.411 3.588-4.518.377-1.944.282-3.945.337-5.914.035-1.288-.022-3.046 1.204-3.832 1.269-.812 3.019-.703 4.401-1.291 4.624-1.965 6.191-6.659 5.08-11.285-.629-2.616-1.927-5.29-3.924-7.136l-9.103-8.428c4.406-.426 3.767-5.758 2.54-8.696-1.689-4.048-4.639-7.557-7.629-10.705-6.466-6.806-14.57-12.013-23.682-14.476-2.488-.673-5.038-1.126-7.61-1.32.064-.115.128-.235.191-.349-5.368-.18-11.056.626-16.679 2.849 0 0-1.085-.93-3.024-2.605v.001c-2.815-2.431-7.436-6.439-13.16-11.465-.907 3.951-3.564 7.724-6.992 9.235z" fill="#7b7c7f"/><path d="m131.599 219.43c-.801-6.525-.434-10.91.517-13.852-8.732 3.419-17.575 6.848-26.808 8.643-9.067 1.762-18.282 2.802-27.462 3.765-16.22 1.7-32.49 2.915-48.762 3.992 4.344-23.196 12.057-45.74 22.921-66.693 6.498-12.53 14.106-24.478 22.673-35.694l-19.868-15.176c-13.989 18.319-25.639 38.418-34.476 59.709-9.29 22.382-15.516 46.056-18.434 70.114-3.112 25.655-2.375 51.719 2.019 77.18 4.091 23.708 11.336 46.854 21.599 68.617 3.23 6.85 6.752 13.566 10.557 20.114l21.616-12.561c-11.994-20.642-20.855-43.059-26.277-66.307-3.214-13.781-5.242-27.841-6.036-41.971 22.966-3.385 45.944-6.859 68.751-11.205 7.577-1.443 15.205-2.9 22.625-5.03 9.47-2.718 18.633-6.726 27.7-10.534.243-.102.485-.204.728-.306-9.376-6.46-11.373-14.807-13.583-32.805-.801-6.525 2.21 17.998 0 0z" fill="#3aa4a4"/><path d="m222.635 194.266.758 11.825.678 10.586c12.762-5.98 21.289-10.058 21.289-10.058 8.503 9.587 23.137 14.046 35.719 8.498l10.827-4.773 7.557-3.331 10.843-4.781 17.562-7.742c4.663-2.055 7.59-7.777 7.317-12.742-.124-2.265-.851-4.136-2.779-5.377-1.55-.997-3.304-1.595-4.948-2.405-1.397-.689-2.148-1.341-2-2.983.218-2.421.855-4.74.581-7.196-.263-2.356-1.124-4.371-3.215-5.582-1.594-.923-3.42-1.37-4.989-2.335-4.031-2.476-.505-7.566-.939-11.188-.517-4.318-4.761-5.531-8.158-7.141-1.111-.526-2.601-1.151-2.838-2.508-.244-1.395.488-2.873.551-4.271.198-4.478-2.72-7.947-6.89-9.126-3.028-.856-6.632-.846-9.546.438l-15.169 6.687c1.143-3.534-2.501-6.244-5.541-6.809-4.852-.902-9.94 1.255-14.094 3.541-6.685 3.678-13.062 8.059-18.105 13.847-5.667 6.503-9.174 14.589-9.453 23.262 0 0-3.774 1.842-10.011 4.826 2.116 2.16 3.592 4.933 3.768 7.683z" fill="#3aa4a4"/><g fill="#7b7c7f"><path d="m165.557 376.418-1.05-.156c-.008.453-.019.9-.03 1.342.33-.468.705-.872 1.08-1.186z"/><path d="m168.435 294.418 18.985 2.821 11.723 1.741 9.079 1.349c-2-24.435-3.817-43.577-3.817-43.577 11.929-4.682 21.151-16.887 20.272-30.61l-.605-9.465-.678-10.586-.758-11.825-1.225-19.155c-.337-5.264-5.038-10.212-10.065-11.425-2.222-.536-4.012-.218-5.768 1.232-1.489 1.23-2.662 2.791-4.143 4.024-1.196.996-2.129.773-3.436.084-1.795-.949-3.506-2.028-5.471-2.611-2.043-.606-4.371-.812-6.22.417-1.556 1.034-2.645 2.597-3.988 3.867-1.229 1.162-2.664 1.86-4.356 1.299-1.719-.57-3.11-1.878-4.673-2.75-1.701-.949-3.908-1.613-5.814-.896-1.852.697-3.32 2.267-4.671 3.65-1.068 1.094-2.294 2.751-3.813 3.235-1.152.367-2.255-.503-3.164-1.08-3.349-2.124-7.78-2.156-10.829.532-2.958 2.607-4.861 7.088-4.607 11.039l.926 14.462c-1.72-.583-3.757-.483-5.377.342-3.497 1.782-4.424 6.259-4.689 9.828-.404 5.42.51 10.913 1.311 16.259.638 4.255 1.393 8.543 2.807 12.619 1.337 3.853 3.38 7.388 6.35 10.212 4.28 4.069 9.853 6.597 15.264 8.779 0 0 1.701 16.484 3.491 38.044 2.478-1.478 5.355-2.24 7.959-1.855z"/><path d="m192.925 391.531c-19.115-1.203-26.486-4.846-28.686-8.337-.471 7.531-2.163 15-3.829 22.34-2.461 10.842-5.306 21.596-8.254 32.313-3.252 11.823-6.665 23.602-10.158 35.355-28.757-17.301-54.132-40.734-74.054-69.479l-.669.464-19.878 13.776c11.728 16.923 25.402 32.489 40.693 46.278 14.975 13.504 31.486 25.293 49.119 35.074 17.513 9.715 36.123 17.443 55.365 22.995 19.348 5.582 39.326 8.959 59.433 10.043 22.72 1.226 45.576-.479 67.867-5.032l-5.002-24.494c-.32.065-.642.123-.962.188l-.038-.188c-25.309 5.167-51.364 6.259-77.003 3.097-14.14-1.744-28.123-4.746-41.734-8.953 4.679-22.242 9.243-44.519 13.209-66.9 2.332-13.157 4.923-26.519 5.035-39.923-8.01 1.95-15.698 1.682-20.454 1.383-19.115-1.203 4.756.299 0 0z"/><path d="m265.488 354.716 5.261-10.613 5.941-11.987c-18.614-2.369-31.998-3.939-31.998-3.939-2.078-12.646-12.076-24.224-25.678-26.245l-10.794-1.603-9.079-1.349-11.723-1.741-18.985-2.821c-5.179-.768-10.928 2.709-13.217 7.307-1.005 2.017-1.163 3.865-.147 5.888.887 1.766 2.199 3.27 3.122 5.01.709 1.336.393 2.182-.527 3.299-1.196 1.453-2.519 2.783-3.499 4.404-1.083 1.793-1.996 4.116-1.354 6.213.59 1.93 2.039 3.437 3.075 5.125.925 1.507 1.302 3.113.32 4.693-.922 1.484-2.413 2.54-3.561 3.837-1.258 1.421-2.373 3.37-2.163 5.338.208 1.951 1.425 3.734 2.478 5.33.879 1.333 2.218 2.853 2.483 4.479.196 1.206-.826 2.119-1.589 2.888-2.871 2.893-3.907 7.278-1.804 10.922 1.953 3.383 5.886 6.135 9.767 6.713l2.688.398 1.05.156c-2.035 1.701-2.762 4.554-1.271 6.847.446.687 1.026 1.278 1.658 1.794 1.979 1.612 4.452 2.586 6.862 3.345 4.184 1.316 8.56 2.007 12.908 2.502 5.257.598 10.587.975 15.879.79 6.753-.235 13.56-1.442 19.729-4.281 6.006-2.763 11.156-7.082 14.863-12.562 0 0 7.837.854 19.731 2.293-.044-1.862.277-3.681 1.045-5.23z"/></g><path d="m396.175 209.962c7.156 6.858 10.248 12.093 11.05 15.742 2.123-3.492 4.334-6.909 6.867-10.118 2.373-3.005 4.892-5.895 7.45-8.743 6.952-7.734 14.244-15.163 21.603-22.508 11.357-11.338 22.946-22.443 34.619-33.454 11.5 21.208 19.783 44.13 24.535 67.782 2.779 13.83 4.368 27.904 4.711 42.006l24.992-.607c-.612-25.265-4.839-50.448-12.471-74.538-7.213-22.767-17.492-44.552-30.497-64.584-12.871-19.826-28.408-37.896-46.064-53.612-16.483-14.673-34.792-27.275-54.359-37.476l-11.557 22.168c25.427 13.256 47.875 30.62 66.675 51.129-14.952 16.621-29.816 33.33-44.296 50.366-10.464 12.311-21.277 24.635-29.327 38.711-.872 1.524-1.727 3.057-2.573 4.595 12.975.983 23.677 8.383 28.642 13.141 7.157 6.859-4.965-4.758 0 0z" fill="#3aa4a4"/><path d="m356.896 378.494c1.758-7.074 4.111-13.9 4.611-21.237.614-8.996-1.568-17.887-7.169-25.057 0 0 4.809-10.729 11.847-25.799-1.745-.489-3.347-1.298-4.584-2.443l-14.082-13.041-8.699-8.052-9.599-8.891c-9.583 20.287-16.675 35.771-16.675 35.771-12.673-1.915-26.764 4.034-32.873 16.354l-2.982 6.017-5.941 11.987-5.261 10.613-8.528 17.198c-2.229 4.499-.863 10.689 2.418 14.334 1.414 1.572 3.147 2.706 5.316 2.526 2.009-.167 3.898-.938 5.848-1.393 1.419-.331 2.384-.291 3.262.943 1.015 1.426 1.763 3.018 2.829 4.414 1.267 1.657 3.124 3.473 5.261 3.847 2.164.38 4.289-.651 6.332-1.195 1.837-.489 3.626-.456 4.916 1.108 1.163 1.41 1.711 3.235 2.669 4.777 1.029 1.658 2.649 3.263 4.671 3.515 1.978.246 4.02-.391 5.901-.921 1.401-.395 3.331-1.232 4.806-.793 1.258.373 1.738 1.907 2.312 2.928 2.317 4.128 7.114 5.643 11.429 3.901 3.054-1.232 6.009-3.652 7.488-6.636l6.767-13.65c.775 1.924 3.144 2.772 5.058 2.845 2.335.088 4.578-.87 6.352-2.345 3.455-2.875 5.244-7.375 6.3-11.625 1.791-7.209-1.795 7.223 0 0z" fill="#3aa4a4"/><path d="m507.816 277.74c-.001.016-.002.031-.003.047l-.997-.047c-1.742 37.127-13.416 74.508-33.4 108.025-21.058-9.34-42.174-18.589-63.561-27.151-7.584-3.037-15.206-6.041-22.98-8.563-8.618-2.797-17.617-4.339-26.524-5.895 2.572 9.475.782 19.266-1.829 28.514-1.84 6.516-3.125 15.005-9.632 18.625 4.784 1.038 9.608 2.106 14.251 3.68 3.422 1.16 6.768 2.539 10.085 3.97 9.419 4.065 18.625 8.626 27.77 13.27 12.499 6.348 24.871 12.943 37.188 19.637-29.91 31.045-67.455 54.499-107.751 67l7.408 23.877c.305-.095.605-.195.91-.291l.09.291c21.152-6.562 41.483-15.726 60.453-27.151 18.677-11.249 36.033-24.682 51.636-39.91 16.953-16.548 31.835-35.219 44.114-55.482 12.279-20.264 21.948-42.124 28.449-64.917 5.233-18.351 8.402-37.291 9.297-56.354z" fill="#7b7c7f"/></svg>