<svg enable-background="new 0 0 102.704 50.349" height="50.349" viewBox="0 0 102.704 50.349" width="102.704" xmlns="http://www.w3.org/2000/svg"><path d="m66.26 11.453c1.44.614 3.718 1.556 5.314 2.37-2.539-.393-5.27-.765-7.222-.78-.871.296-3.361 1.465-6.207 2.702-21.125 9.638-32.093 11.925-49.805 12.203-1.835-.101-3.293-.22-5.098-.373l-.151-.144c15.641.112 29.402-2.559 54.247-13.837 1.419-.645 2.444-1.119 3.696-1.627.845-.184 2.955-.404 4.151-.417l-3.808-.886c7.425-2.945 11.552-4.463 16.945-5.051 1.255-1.456 2.482-2.778 3.322-3.562 1.013-.631 2.919-1.631 2.919-1.631-1.525 2.239-2.544 4.622-3.243 6.463-4.974.339-10.428 2.339-15.06 4.57z" fill="#ed1c24"/><path d="m97.837 8.66c-2.011-.47-6.09-1.135-7.916-1.055-.423.522-1.038 1.203-1.3 1.377-.278.195-1.301.297-2.491.317 1.939-1.36 3.582-2.132 3.582-2.132-2.41-.425-5.798-.58-7.993-.335l1.809-1.535c2.312-.005 5.304.323 7.52.895-.266.342-.986 1.208-.986 1.208s1.87-.426 2.8-.642c1.667.177 3.469 1.005 4.695 1.556.124.117.228.253.28.346z" fill="#ed1c24"/><path d="m45.268 41.257c0-2.992-1.815-4.675-4.216-4.675-2.597 0-4.49 1.809-4.49 4.516 0 2.705 1.99 4.514 4.865 4.514.84 0 1.626-.147 2.295-.425l1.226-2.044-.163-.087c-1.054.552-2.162.836-3.165.836-1.483 0-2.765-.754-2.909-2.042h6.557zm-6.556-1.02c.162-1.238.95-2.043 2.222-2.043 1.344 0 2.169.788 2.186 2.043zm47.011-3.655c-2.601 0-4.492 1.809-4.492 4.516 0 2.705 1.99 4.514 4.866 4.514.839 0 1.625-.147 2.293-.425l1.228-2.044-.162-.087c-1.053.552-2.163.836-3.166.836-1.482 0-2.762-.754-2.907-2.042h6.555c.284-3.371-1.527-5.268-4.215-5.268zm-2.341 3.655c.158-1.238.949-2.043 2.219-2.043 1.345 0 2.17.788 2.188 2.043zm-27.704-3.655c-2.597 0-4.49 1.809-4.49 4.516 0 2.705 1.99 4.514 4.864 4.514.841 0 1.626-.147 2.297-.425l1.223-2.044-.162-.087c-1.053.552-2.161.836-3.163.836-1.482 0-2.764-.754-2.908-2.042h6.558c.284-3.371-1.528-5.268-4.219-5.268zm-2.339 3.655c.161-1.238.949-2.043 2.22-2.043 1.345 0 2.17.788 2.187 2.043zm-42.085-1.524v-.037c1.309-.394 2.203-1.343 2.203-2.776 0-2.311-1.972-3.189-3.885-3.189h-4.636v-.001h-1.845v.19l.65.553c.782.637.882.76.882 1.336v10.609h4.572c2.398 0 4.801-.86 4.801-3.621 0-1.629-1.149-2.885-2.742-3.064zm-4.37-4.066h1.862c1.261 0 1.65.174 2.031.536.291.275.423.653.424 1.094 0 .41-.14.776-.438 1.06-.373.357-.885.533-1.821.533h-2.058zm2.076 8.814h-2.076v-3.655h2.166c1.827 0 2.688.465 2.688 1.792 0 1.667-1.614 1.863-2.778 1.863zm9.304-9.585c0 .734-.611 1.29-1.398 1.29-.789 0-1.361-.61-1.361-1.29 0-.682.572-1.292 1.361-1.292.787.001 1.398.557 1.398 1.292zm-3.612 2.922h3.307v8.6h-2.152v-6.766h-.002c0-.711-.038-.825-.81-1.421l-.343-.271zm17.115-4.618v.158l.673.434c.614.391.708.577.708 1.124v3.993h-.054c-.447-.555-1.309-1.307-2.921-1.307-2.455 0-4.157 1.97-4.157 4.516 0 2.544 1.596 4.514 4.248 4.514 1.2 0 2.329-.466 2.957-1.502h.035l.225 1.288h1.817v-13.218zm-1.074 11.496c-1.577 0-2.528-1.235-2.528-2.578 0-1.345.951-2.581 2.528-2.581 1.578 0 2.528 1.236 2.528 2.581-.001 1.343-.95 2.578-2.528 2.578zm45.67-11.496v.158l.299.199c1.036.655 1.164.845 1.164 1.965v3.387h-.053c-.45-.555-1.309-1.307-2.92-1.307-2.455 0-4.157 1.97-4.157 4.516 0 2.544 1.595 4.514 4.245 4.514 1.202 0 2.331-.466 2.956-1.502h.035l.228 1.288h1.815v-13.218zm-.992 11.496c-1.575 0-2.526-1.235-2.526-2.578 0-1.345.951-2.581 2.526-2.581 1.577 0 2.526 1.236 2.526 2.581 0 1.343-.949 2.578-2.526 2.578zm21.458-6.97v2.079c-.359-.091-.697-.162-1.04-.162-2.023 0-2.31 1.703-2.31 2.17v4.604h-2.15v-6.356c0-1.082-.057-1.244-.932-1.797l-.539-.357-.007-.094h3.628v1.366h.038c.464-.985 1.413-1.577 2.543-1.577.268 0 .519.053.769.124zm-47.741.056h1.997v1.834h-1.997v6.802h-2.158v-6.059c0-.721-.145-.88-1-1.556l-1.096-.891v-.13h2.096v-1.569c0-2.335 1.521-3.815 4.817-3.157l.498 1.821-.104.084c-1.721-.676-3.054-.244-3.054 1.259v1.562zm20.378 3.204v5.431h-2.151v-4.785c0-.948-.24-2.096-1.746-2.096-1.416 0-1.971 1.039-1.971 2.186v4.695h-2.148v-6.356c0-1.082-.058-1.244-.934-1.797l-.538-.357v-.094h1.68v.005h1.833v1.31h.035c.708-1.054 1.784-1.526 2.737-1.526 2.032 0 3.203 1.391 3.203 3.384zm-44.117 3.703.071.044s-1.069 1.71-1.067 1.71c-1.753.473-3.723-.031-3.723-2.842v-3.958l-.003.473c0-.554-.089-.526-1.296-1.521l-.779-.675v-.103h2.089l.784-2.492h1.365v2.492h2.299v1.825h-2.299v3.899c0 1.554 1.061 1.59 2.559 1.148z"/><path d="m97.307 32.514h-.528v1.626h.057v-.762h.471c.01 0 .02-.001.029-.004l.007-.001.004.006.49.761h.072l-.503-.771.017-.001c.056-.005.111-.018.162-.037.05-.018.094-.044.132-.078.039-.034.07-.077.091-.127.023-.05.034-.108.034-.177 0-.136-.043-.244-.128-.32-.087-.078-.224-.115-.407-.115zm.478.433c0 .083-.018.15-.054.201-.034.05-.079.087-.134.112-.054.025-.111.041-.175.049-.06.007-.118.011-.179.011h-.408v-.75h.465c.06 0 .12.005.179.016.059.01.11.029.155.057.045.029.081.067.108.116.028.047.043.111.043.188z"/><path d="m98.558 33.854c.074-.171.112-.357.112-.555s-.038-.384-.112-.555c-.074-.17-.176-.322-.304-.451-.126-.126-.277-.228-.449-.304-.171-.074-.357-.112-.554-.112s-.383.038-.554.112c-.172.075-.323.177-.449.304-.129.13-.231.28-.304.451-.074.171-.112.357-.112.555s.038.384.112.555c.074.17.176.322.304.45.126.127.278.229.449.302s.357.11.554.11.383-.037.554-.11c.173-.074.324-.176.449-.302.128-.128.23-.279.304-.45zm-.777.704c-.166.071-.344.106-.53.106-.189 0-.368-.035-.533-.106-.166-.07-.311-.168-.434-.291-.123-.124-.221-.27-.291-.434-.07-.166-.106-.346-.106-.534 0-.186.035-.365.106-.53.071-.166.168-.312.291-.434.122-.122.267-.221.434-.293.164-.072.344-.108.533-.108.187 0 .365.036.53.108s.31.171.432.293c.123.123.221.269.292.434.072.166.108.344.108.53 0 .189-.037.368-.108.534-.07.163-.169.309-.292.434-.123.123-.269.221-.432.291z"/></svg>