<?xml version="1.0" encoding="utf-8"?>
<!-- Generator: Adobe Illustrator 17.0.0, SVG Export Plug-In . SVG Version: 6.00 Build 0)  -->
<!DOCTYPE svg PUBLIC "-//W3C//DTD SVG 1.1//EN" "http://www.w3.org/Graphics/SVG/1.1/DTD/svg11.dtd">
<svg version="1.1" id="svg4441" xmlns:svg="http://www.w3.org/2000/svg"
	 xmlns="http://www.w3.org/2000/svg" xmlns:xlink="http://www.w3.org/1999/xlink" x="0px" y="0px" width="256.582px"
	 height="50.618px" viewBox="761.5 36.158 256.582 50.618" enable-background="new 761.5 36.158 256.582 50.618"
	 xml:space="preserve">
<path id="path4380" fill="#231F20" d="M926.721,79.361h-4.844V47.228l15.581,0.021c0,0,2.853-0.173,4.667,2.741
	c0,0,1.852,2.515,1.852,8.659v20.705h-4.831v-21.24c0,0,0.06-2.166-0.395-2.928c0,0-0.402-0.826-1.165-0.826h-10.875L926.721,79.361
	L926.721,79.361z M947.34,79.355V49.26v-2.019h19.445v7.141l-14.622-0.002v5.459h10.16v6.896h-10.16v5.477h14.719v7.143
	L947.34,79.355L947.34,79.355z M913.438,79.355V49.26v-2.019h4.823v32.114H913.438z M974.964,52.362V51.28V52.362z M973.721,79.355
	V54.381h-4.553V47.24h18.107v7.141h-8.73v24.973H973.721z M898.742,52.362V51.28V52.362z M897.498,79.355V54.381h-4.553V47.24
	h18.107v7.141h-8.73v24.973H897.498z M882.949,59.833c1.178-0.015,1.883,0.002,2.167-0.279c0,0,0.495-0.445,0.501-1.4l0.001-2.1
	c0-0.96-0.501-1.4-0.501-1.4c-0.376-0.332-1.013-0.27-2.526-0.272h-9.397v5.452h9.971L882.949,59.833L882.949,59.833z
	 M885.548,79.355V68.395c0-0.985-0.507-1.398-0.507-1.398c-0.229-0.231-0.913-0.272-1.92-0.272h0.234h-10.161v12.63h-4.823V49.259
	V47.24h15.056c2.6,0.013,4.396,0.634,5.632,2.586c1.215,2.012,1.377,4.644,1.382,7.383v2.286c0.016,2.328-0.737,4.451-1.634,5.687
	l0.18,0.145c0.366,0.288,0.566,0.697,0.566,0.697c0.683,1.417,0.674,2.635,0.673,4.135v9.194L885.548,79.355L885.548,79.355z
	 M812.608,47.238v2.021v30.093h4.823V66.734h14.612v-6.899H817.43v-5.457h16.988v-7.141L812.608,47.238z"/>
<path id="path4408" fill="#EE2E24" d="M861.747,79.661c1.567-0.865,2.786-3.798,3.08-7.487v-1.066h-8.034v8.553H861.747z
	 M864.827,55.424V54.46c-0.308-3.848-1.618-6.88-3.289-7.593h-4.745v8.558C856.794,55.424,864.827,55.424,864.827,55.424z
	 M836.549,71.108v1.057c0.291,3.692,1.51,6.631,3.081,7.496h4.928v-8.553H836.549z M839.836,46.868
	c-1.668,0.713-2.982,3.747-3.287,7.6v0.958h8.009v-8.558H839.836z M864.828,58.987h-8.033v8.558h8.033V58.987z M846.747,79.66h7.859
	v-8.553h-7.859V79.66L846.747,79.66z M854.606,46.867h-7.859v8.558h7.859C854.606,55.425,854.606,46.867,854.606,46.867z
	 M836.549,67.545h8.009v-8.558h-8.009V67.545z"/>
</svg>
