<svg height="233" viewBox="-2.89248024 -2.89248024 448.70000048 102.20096848" width="1024" xmlns="http://www.w3.org/2000/svg"><path d="m389.9707 77.93456-7.94434-15.89355-7.9541 15.89355zm-178.1543-38.0371-15.89355 7.94432 15.89355 7.94923zm-143.59374 17.9248 7.94922 15.89355 7.9541-15.89355zm363.53515-33.85743c-2.65625 0-5.23926 2.02149-5.23926 5.09278 0 3.2959 2.65625 5.16114 5.23926 5.16114 2.88087 0 5.35157-1.93848 5.35157-5.04884 0-3.18359-2.58302-5.20508-5.31739-5.20508zm-21.89941 16.25v-6.21093h13.21289c-2.3584-2.21192-2.3584-5.1709-2.3584-6.03515 0-4.33594 3.11035-10.21485 10.97169-10.21485 7.48535 0 11.23046 5.2002 11.23046 10.47851 0 2.92481-1.4209 5.1709-2.91993 6.03027h2.20215v5.95215zm22.05078 20.84473c1.9043 0 5.2002-1.4209 5.2002-5.16601 0-2.20703-1.0498-3.55957-2.31934-4.3457-.82519-.52247-1.72364-.78614-2.66114-.85938-.93261-.07324-1.86522.1123-2.72949.52246-1.4209.67383-2.88086 2.09473-2.88086 4.72168 0 3.55957 2.99318 5.12695 5.34669 5.12695zm10.28808-16.58691v6.21582h-2.24608c2.03125 1.12305 2.96386 3.70605 2.96386 6.13769 0 6.5918-5.16601 10.44922-11.12305 10.44922-6.81153 0-11.0791-4.90235-11.0791-10.44922 0-3.40331 1.64551-5.3125 2.91992-6.13769h-2.20702v-6.21582zm-32.33886 33.46191v-6.21581h32.33886v6.21581z" fill="#d52b1e"/><path d="m275.43945 86.33788 4.63868 10.07813c22.0166-16.84083 26.06933-35.64941 11.73827-55.80566-11.35254-15.97169 1.14259-30.17579 4.90235-33.86719l-8.42774-6.74316c-5.50781 6.04491-19.96093 24.93652-7.32421 43.93553 12.24609 18.40333 10.97656 28.37892-5.52735 42.40235zm-171.0498 0 4.63867 10.07813c22.01661-16.84083 26.06933-35.64941 11.7334-55.80566-11.34766-15.97169 1.14258-30.17579 4.90234-33.86719l-8.42285-6.74316c-5.51269 6.04491-19.96582 24.93652-7.31933 43.93553 12.24121 18.40333 10.97168 28.37892-5.53223 42.40235zm291.57715-68.58398-13.94044 24.15038-13.95018-24.15038h-11.34767l25.29785 43.81836 25.29787-43.81836zm-227.38281 3.41308c-3.97461-2.33398-8.84278-3.41308-15.32228-3.41308h-14.20897v60.18066h11.35741v-48.82813h2.85156c7.86134 0 13.25197 1.93848 13.25197 9.00392 0 6.59667-6.49415 9.4873-14.01857 9.72167-.22948.00489-1.07421.00489-1.63573.00976l7.54395 10.77638c3.73046-.65918 7.08007-1.87013 9.87792-3.58399.20508-.13184.41015-.27344.61524-.41015 5.708-3.77441 8.9746-9.75099 8.9746-16.51367 0-7.41212-3.30078-13.42774-9.2871-16.94337zm89.90234 33.45704c5.70312-3.77441 8.96972-9.75099 8.96972-16.51367 0-7.41212-3.30077-13.42774-9.29199-16.94337-3.96483-2.33398-8.83788-3.41308-15.31738-3.41308h-14.20898v60.18066h11.35741v-48.82813h2.85157c7.86133 0 13.25683 1.93848 13.25683 9.00392 0 6.59667-6.49413 9.4873-14.01855 9.72167-.23926.00489-1.07422.00489-1.63573.00976l21.06932 30.09278h13.28614zm76.71387-6.78224 21.06933-30.08788h-13.29102l-21.06445 30.08788 21.06445 30.09278h13.29102zm-13.74024-30.08788h-11.35253v60.18066h11.35253zm-296.3623 30.08788 21.06933-30.08788h-13.28613l-21.06933 30.08788 21.06933 30.09278h13.28613zm-13.74024-30.08788h-11.35742v60.18066h11.35742zm208.52539 11.35253v-11.35253h-35.76172v60.18066h35.76172v-11.35254h-24.41406v-37.47559zm-114.57031 48.82813h-11.35742l-17.7832-38.13476-17.77832 38.13476h-11.36231l29.14063-62.48535z" fill="#006d55"/></svg>