<svg height="83.38475" width="299.63394" xmlns="http://www.w3.org/2000/svg"><g transform="translate(-578.92857 -436.8125)"><g fill="#0868b2"><path d="m705.96875 461.4375c-1.83034.0551-3.82416.29778-5.96875.75h-10.34375v48.375l12.65625.1875v-16.25c23.80308 6.97361 31.11132-33.8885 3.65625-33.0625zm1.25 10.25c3.38654 0 6.15625 2.73846 6.15625 6.125s-2.76971 6.125-6.15625 6.125-6.125-2.73846-6.125-6.125 2.73846-6.125 6.125-6.125z" fill-opacity=".996078"/><path d="m828.40625 445.03125v16.4375c-28.62672-5.23709-31.36974 41.01899 1.25 32.15625h11.0625v-48.59375zm33.78125 15.46875c-24.56376-.0385-26.4534 41.34509 6.375 33.8125l10 .375-.34375-33.40625-9.28125.1875c-2.39993-.65325-4.66833-.96549-6.75-.96875zm-77.5.3125c-2.09572-.005-4.26862.31066-6.40625.9375l-10.25.625v31.40625h12.3125v-15.65625c-.11642-8.1679 10.52445-7.04193 10.1875 0v15.65625h12.3125v-17.84375c-1.08996-9.37405-9.07478-15.10541-18.15625-15.125zm-40.0625.1875c-24.26188.16448-21.55205 41.29871 7.15625 33.15625h10.90625v-31.78125h-9.65625c-3.08797-.95962-5.8964-1.39202-8.40625-1.375zm.375 10.9375c3.38654 0 6.125 2.73846 6.125 6.125s-2.73846 6.15625-6.125 6.15625-6.125-2.76971-6.125-6.15625 2.73846-6.125 6.125-6.125zm78.5625.375c3.38654 0 6.15625 2.73846 6.15625 6.125s-2.76971 6.125-6.15625 6.125-6.125-2.73846-6.125-6.125 2.73846-6.125 6.125-6.125zm37.5 0c3.38654 0 6.15625 2.73846 6.15625 6.125s-2.76971 6.125-6.15625 6.125-6.125-2.73846-6.125-6.125 2.73846-6.125 6.125-6.125z" fill-opacity=".996078"/><path d="m667.14288 479.14789c0 22.78174-18.46825 41.25-41.25 41.25-22.78174 0-41.25-18.46826-41.25-41.25 0-22.78175 18.46826-41.25 41.25-41.25 22.78175 0 41.25 18.46825 41.25 41.25z" transform="matrix(.28571428 0 0 .28571428 411.88775 311.71278)"/></g><path d="m625.34375 436.8125c-22.78175 0-41.25 18.46825-41.25 41.25 0 .12553-.001.24974 0 .375h23.625c-.01-.24194-.0312-.47442-.0312-.71875 0-9.79863 7.8818-17.74156 17.65625-17.84375v-23.0625z" fill="#7bb1e0"/><path d="m667.14288 479.14789c0 22.78174-18.46825 41.25-41.25 41.25-22.78174 0-41.25-18.46826-41.25-41.25 0-22.78175 18.46826-41.25 41.25-41.25 22.78175 0 41.25 18.46825 41.25 41.25z" fill="#0868b2" transform="matrix(.28571428 0 0 .28571428 481.88776 312.06993)"/><path d="m625.426 436.81537c22.78175 0 41.25 18.46825 41.25 41.25 0 .12553.001.24974 0 .375h-23.625c.01-.24194.0312-.47442.0312-.71875 0-9.79863-7.8818-17.74156-17.65625-17.84375v-23.0625z" fill="#5588c7"/><path d="m625.34725 520.19725c-22.78175 0-41.25-18.46825-41.25-41.25 0-.12553-.001-.24974 0-.375h23.625c-.01.24194-.0312.47442-.0312.71875 0 9.79863 7.8818 17.74156 17.65625 17.84375v23.0625z" fill="#272a67"/><path d="m625.4295 520.19438c22.78175 0 41.25-18.46825 41.25-41.25 0-.12553.001-.24974 0-.375h-23.625c.01.24194.0312.47442.0312.71875 0 9.79863-7.8818 17.74156-17.65625 17.84375v23.0625z" fill="#0868b2"/></g></svg>