<svg enable-background="new 23.298 0 180.702 50.246" height="50.246" viewBox="23.298 0 180.702 50.246" width="180.702" xmlns="http://www.w3.org/2000/svg"><g fill="#007aff"><path d="m45.989 32.449h10.359c1.805 0 2.794-.17 3.374-.545.716-.444 1.125-1.191 1.125-2.078 0-1.057-.546-1.977-1.465-2.421-.476-.272-1.364-.409-2.454-.409h-4.192c-2.725 0-4.498-.477-5.69-1.499-1.363-1.194-2.146-3.033-2.146-5.009 0-2.896 1.601-5.418 3.952-6.236 1.022-.375 2.214-.476 4.873-.476h11.245v4.055h-10.156c-2.147.034-2.318.034-3.033.204-.954.238-1.533 1.124-1.533 2.316 0 1.024.476 1.841 1.295 2.216.681.307 1.227.375 2.863.375h3.646c3.34 0 5.145.512 6.475 1.875 1.022 1.022 1.704 3.033 1.704 5.011 0 2.419-1.125 4.667-2.896 5.759-1.124.715-2.555.919-5.93.919h-11.416z"/><path d="m79.214 13.603c-3.203 0-5.998.784-7.769 2.216-2.249 1.772-3.441 5.079-3.441 9.441 0 3.032.646 5.521 1.976 7.395 1.772 2.557 5.215 3.989 9.576 3.989 3.067 0 5.657-.751 7.362-2.114 2.249-1.805 3.512-5.079 3.512-9.067l-.01-.65-.028-.64-.045-.623-.061-.611-.08-.596-.099-.578-.113-.559-.131-.541-.074-.265-.076-.258-.08-.255-.083-.245-.086-.245-.092-.237-.096-.23-.1-.228-.101-.217-.107-.215-.111-.208-.114-.2-.12-.196-.12-.19-.126-.181-.129-.175c-1.739-2.255-4.979-3.517-9.034-3.517zm.033 3.849c4.056 0 5.862 2.388 5.862 7.703 0 5.248-1.84 7.668-5.862 7.668-4.089 0-5.93-2.421-5.93-7.736l.003-.224.003-.221.003-.217.009-.215.01-.21.01-.208.012-.203.015-.2.018-.197.019-.19.021-.186.024-.184.025-.181.028-.179.031-.172.031-.172.034-.165.037-.16.037-.16.041-.154.043-.151.043-.148.045-.141.049-.138.052-.135.052-.132.056-.126.058-.126.058-.12.061-.114.065-.111.065-.107c.919-1.467 2.657-2.288 4.872-2.288z"/><path d="m93.017 13.775v22.73h4.836v-7.943h7.773c2.59 0 3.813-.338 5.143-1.463 1.568-1.328 2.522-3.543 2.522-5.93 0-2.01-.715-3.886-2.044-5.317-1.499-1.67-2.898-2.077-6.885-2.077zm4.836 4.055h6.679c.784 0 1.398.067 1.772.204 1.057.375 1.671 1.465 1.671 2.964 0 1.262-.376 2.353-.989 2.864l-.049.043-.049.042-.052.041-.052.041-.056.036-.055.034-.058.034-.061.032-.062.03-.065.031-.065.025-.067.027-.071.025-.071.02-.074.022-.077.021-.079.017-.08.014-.083.015-.086.015-.089.012-.089.012-.096.01-.096.012-.098.007-.104.006-.105.007-.107.006-.111.002-.114.003h-.117l-.12.003h-6.577v-6.677z"/><path d="m133.976 36.502h-4.839v-9.37h-8.758v9.37h-4.839v-22.727h4.839v9.303h8.758v-9.303h4.839z"/><path d="m148.085 13.603c-3.202 0-5.997.784-7.769 2.216-2.249 1.772-3.444 5.079-3.444 9.441 0 3.032.648 5.521 1.979 7.395 1.77 2.557 5.213 3.989 9.576 3.989 3.068 0 5.656-.751 7.358-2.114 2.249-1.805 3.511-5.079 3.511-9.067l-.01-.65-.027-.64-.045-.623-.062-.611-.08-.596-.098-.578-.114-.559-.129-.541-.074-.264-.074-.258-.079-.255-.086-.245-.086-.245-.093-.237-.096-.23-.098-.228-.104-.217-.107-.215-.11-.208-.114-.2-.12-.196-.12-.19-.128-.181-.129-.175c-1.737-2.256-4.972-3.518-9.028-3.518zm.035 3.849c4.054 0 5.861 2.388 5.861 7.703 0 5.248-1.841 7.668-5.861 7.668-4.089 0-5.93-2.421-5.93-7.736v-.224l.003-.221.007-.217.006-.215.01-.21.014-.208.012-.203.014-.2.014-.197.019-.19.024-.186.021-.184.024-.181.028-.179.03-.172.032-.172.034-.165.036-.16.038-.16.041-.154.043-.151.043-.148.048-.141.048-.138.049-.135.052-.132.055-.126.059-.126.058-.12.062-.114.065-.111.069-.107c.917-1.467 2.656-2.288 4.872-2.288z"/><path d="m162.159 32.449h10.359c1.805 0 2.793-.17 3.373-.545.714-.444 1.124-1.191 1.124-2.078 0-1.057-.545-1.977-1.465-2.421-.478-.272-1.363-.409-2.453-.409h-4.192c-2.726 0-4.498-.477-5.69-1.499-1.363-1.194-2.147-3.033-2.147-5.009 0-2.896 1.601-5.418 3.953-6.236 1.022-.375 2.216-.476 4.873-.476h11.245v4.055h-10.155c-2.147.034-2.318.034-3.032.204-.955.238-1.535 1.124-1.535 2.316 0 1.024.478 1.841 1.297 2.216.679.307 1.224.375 2.861.375h3.646c3.339 0 5.145.512 6.476 1.875 1.021 1.022 1.702 3.033 1.702 5.01 0 2.419-1.124 4.667-2.896 5.759-1.124.715-2.555.919-5.93.919h-11.415z"/></g></svg>