<?xml version="1.0" encoding="utf-8"?>
<!-- Generator: Adobe Illustrator 17.0.0, SVG Export Plug-In . SVG Version: 6.00 Build 0)  -->
<!DOCTYPE svg PUBLIC "-//W3C//DTD SVG 1.1//EN" "http://www.w3.org/Graphics/SVG/1.1/DTD/svg11.dtd">
<svg version="1.1" id="Capa_1" xmlns="http://www.w3.org/2000/svg" xmlns:xlink="http://www.w3.org/1999/xlink" x="0px" y="0px"
	 width="38.23px" height="21.847px" viewBox="721.773 412.798 38.23 21.847" enable-background="new 721.773 412.798 38.23 21.847"
	 xml:space="preserve">
<g id="Rounded_Rectangle_33_copy_4_1_">
	<path d="M741.375,427.695c0.485,0.485,0.485,1.272,0,1.757l0,0c-0.485,0.485-1.272,0.485-1.757,0l-10.608-10.608
		c-0.485-0.485-0.485-1.272,0-1.757l0,0c0.485-0.485,1.272-0.485,1.757,0L741.375,427.695z"/>
	<path d="M739.643,427.695c-0.485,0.485-0.485,1.272,0,1.757l0,0c0.485,0.485,1.272,0.485,1.757,0l10.608-10.608
		c0.485-0.485,0.485-1.272,0-1.757l0,0c-0.485-0.485-1.272-0.485-1.757,0L739.643,427.695z"/>
</g>
</svg>
