<svg enable-background="new 79.266 120.61 454.565 515.206" height="515.206" viewBox="79.266 120.61 454.565 515.206" width="454.565" xmlns="http://www.w3.org/2000/svg" xmlns:xlink="http://www.w3.org/1999/xlink"><linearGradient id="a"><stop offset="0" stop-color="#6e7071"/><stop offset="1" stop-color="#fff"/></linearGradient><linearGradient id="b" gradientTransform="matrix(-398.1066 16.2757 55.9502 115.8076 88992.5469 -52836.832)" gradientUnits="userSpaceOnUse" x1="282.0138" x2="282.0138" xlink:href="#a" y1="421.4956" y2="420.4956"/><linearGradient id="c" gradientTransform="matrix(132.0596 -277.8041 -203.3539 -180.4081 48592.4453 154618.25)" gradientUnits="userSpaceOnUse" x1="281.9855" x2="281.9855" xlink:href="#a" y1="421.5026" y2="420.5026"/><linearGradient id="d" gradientTransform="matrix(194.4016 44.8487 23.8695 -365.2637 -64436.1094 141492.8438)" gradientUnits="userSpaceOnUse" x1="281.9917" x2="281.9917" y1="421.501" y2="420.501"><stop offset="0" stop-color="#868789"/><stop offset="1" stop-color="#fff"/></linearGradient><g fill="#007cc2"><path d="m99.35 581.971-1.762 3.762-.36-.209c.01-.066.015-.123.019-.175.005-.047.01-.104.01-.156 0-.289-.37-.644-1.104-1.066-.734-.417-1.729-.791-2.985-1.109s-2.606-.479-4.046-.479c-1.156 0-2.217.156-3.174.464-.957.313-1.701.753-2.227 1.326s-.791 1.242-.791 2c0 1.241.582 2.009 1.748 2.312 1.166.299 3.231.573 6.192.82 2.961.242 5.183.734 6.661 1.469 1.483.739 2.222 2.108 2.222 4.117 0 1.398-.417 2.591-1.255 3.582-.839.99-1.99 1.734-3.459 2.236-1.474.497-3.127.749-4.97.749-1.431 0-2.734-.119-3.904-.36-1.17-.242-2.142-.526-2.914-.848s-1.431-.64-1.98-.943c-.55-.308-.867-.459-.952-.459-.175 0-.308.033-.403.104-.09.071-.185.18-.275.327l-.374-.18 2.075-4.056.332.194c-.009.038-.028.133-.062.284-.033.152-.047.232-.047.232 0 .412.431.886 1.294 1.412.867.531 1.961.976 3.283 1.336s2.667.54 4.037.54c1.507 0 2.786-.171 3.838-.507s1.843-.806 2.379-1.403c.535-.597.805-1.284.805-2.061 0-1.279-.606-2.066-1.824-2.369-1.217-.299-3.283-.559-6.202-.782-2.914-.223-5.112-.711-6.586-1.464-1.473-.753-2.212-2.175-2.212-4.255 0-1.166.393-2.227 1.184-3.174.791-.948 1.895-1.691 3.312-2.227 1.412-.535 3.004-.805 4.771-.805 2.089 0 4.113.341 6.074 1.028.488.156 1.037.365 1.634.63.602.265.943.398 1.014.398.123 0 .336-.119.654-.351zm5.69 10.598c0 1.459.36 2.715 1.085 3.767.72 1.047 1.663 1.833 2.824 2.359 1.161.521 2.388.782 3.686.782.933 0 1.838-.142 2.72-.431.881-.284 1.682-.725 2.416-1.317.73-.593 1.303-1.317 1.715-2.18.412-.857.616-1.852.616-2.98 0-1.469-.36-2.729-1.085-3.771-.72-1.047-1.649-1.829-2.786-2.345-1.142-.516-2.341-.777-3.596-.777-1.298 0-2.525.26-3.686.777-1.161.516-2.104 1.298-2.824 2.345-.725 1.042-1.085 2.303-1.085 3.771zm-2.388.005c0-1.848.441-3.463 1.327-4.837.881-1.374 2.085-2.416 3.601-3.127 1.521-.716 3.184-1.071 4.998-1.071 1.341 0 2.62.204 3.838.611 1.217.408 2.284 1 3.193 1.777.91.777 1.62 1.725 2.123 2.838.507 1.118.758 2.388.758 3.809 0 1.426-.251 2.696-.758 3.804-.502 1.113-1.213 2.056-2.127 2.843-.919.781-1.98 1.374-3.193 1.781s-2.492.611-3.833.611c-1.814 0-3.478-.355-4.998-1.071-1.516-.711-2.719-1.753-3.601-3.127-.887-1.373-1.328-2.988-1.328-4.841zm23.879-8.755h3.411v.346c-.185 0-.313.048-.393.133-.081.09-.118.261-.118.521v14.379h11.309c.279 0 .474-.047.592-.138.114-.095.199-.294.256-.597h.346v3.554h-.346c-.057-.279-.142-.464-.265-.55-.118-.09-.313-.133-.583-.133h-14.209v-.346c.175 0 .303-.043.388-.133.08-.09.123-.26.123-.521v-15.516c0-.26-.043-.431-.123-.521-.085-.085-.213-.133-.388-.133zm18.847 0h3.97v.346c-.322 0-.535.043-.64.128-.1.081-.151.256-.151.526v11.11c0 .858.218 1.549.658 2.07.441.521 1.094.9 1.957 1.133.867.232 1.985.346 3.354.346s2.483-.114 3.35-.346c.862-.232 1.516-.606 1.957-1.123.441-.521.658-1.213.658-2.08v-11.11c0-.26-.042-.431-.123-.521-.085-.09-.232-.133-.445-.133v-.346h3.525v.346c-.204 0-.351.048-.436.133-.09.09-.133.261-.133.521v10.954c0 3.894-2.786 5.842-8.353 5.842-1.805 0-3.335-.208-4.581-.63-1.251-.422-2.194-1.066-2.824-1.933-.635-.862-.952-1.957-.952-3.279v-10.954c0-.27-.052-.445-.152-.526-.104-.085-.317-.128-.639-.128zm39.655 1.26-1.876 3.402-.232-.142c.071-.223.109-.431.109-.625 0-.185-.308-.445-.929-.782-.621-.336-1.393-.63-2.312-.881s-1.81-.374-2.672-.374c-1.426 0-2.701.27-3.833.806-1.128.535-2.018 1.331-2.677 2.383-.659 1.056-.986 2.307-.986 3.762 0 1.388.327 2.596.981 3.634.649 1.033 1.544 1.829 2.682 2.383 1.142.555 2.388.834 3.748.834.578 0 1.227-.085 1.952-.256s1.431-.408 2.109-.701c.682-.294 1.232-.611 1.653-.952.422-.336.63-.668.63-.99 0-.185-.071-.365-.223-.54l.28-.223 2.388 3.009-.279.166c-.232-.166-.426-.247-.597-.247-.071 0-.421.19-1.047.569-.626.384-1.242.73-1.848 1.042-.602.308-1.336.597-2.198.862s-1.763.398-2.705.398c-1.331 0-2.606-.208-3.819-.625s-2.274-1.028-3.193-1.833c-.914-.806-1.625-1.772-2.137-2.904-.507-1.137-.763-2.407-.763-3.814 0-1.672.408-3.193 1.223-4.553s1.952-2.426 3.421-3.193c1.469-.768 3.122-1.151 4.961-1.151.929 0 1.819.095 2.672.279.858.185 1.578.393 2.165.621.587.232 1.113.459 1.577.687s.711.341.749.341c.137 0 .246-.019.327-.062s.166-.119.256-.228c.095-.114.161-.185.208-.222zm8.467 16.256h-3.97v-.346c.322 0 .536-.043.639-.128.1-.081.152-.256.152-.526v-15.516c0-.27-.052-.445-.152-.526-.104-.085-.317-.128-.639-.128v-.346h3.97v.346c-.322 0-.535.043-.639.128-.1.081-.152.256-.152.526v15.516c0 .27.052.445.152.526.104.085.318.128.639.128zm6.287-8.765c0 1.459.36 2.715 1.085 3.767.72 1.047 1.663 1.833 2.824 2.359 1.161.521 2.388.782 3.686.782.933 0 1.838-.142 2.72-.431.881-.284 1.682-.725 2.416-1.317.73-.593 1.303-1.317 1.715-2.18.412-.857.616-1.852.616-2.98 0-1.469-.36-2.729-1.085-3.771-.72-1.047-1.649-1.829-2.786-2.345-1.142-.516-2.341-.777-3.596-.777-1.298 0-2.525.26-3.686.777-1.161.516-2.104 1.298-2.824 2.345-.725 1.042-1.085 2.302-1.085 3.771zm-2.388.005c0-1.848.441-3.463 1.327-4.837.881-1.374 2.085-2.416 3.601-3.127 1.521-.716 3.184-1.071 4.998-1.071 1.341 0 2.62.204 3.838.611 1.217.408 2.284 1 3.193 1.777.91.777 1.62 1.725 2.123 2.838.507 1.118.758 2.388.758 3.809 0 1.426-.251 2.696-.758 3.804-.502 1.113-1.213 2.056-2.127 2.843-.919.781-1.98 1.374-3.193 1.781s-2.492.611-3.833.611c-1.814 0-3.478-.355-4.998-1.071-1.516-.711-2.719-1.753-3.601-3.127-.887-1.373-1.328-2.989-1.328-4.841zm27.29 8.76h-3.53v-.346c.27 0 .45-.047.545-.133.09-.09.137-.26.137-.521v-15.516c0-.26-.047-.431-.137-.521-.095-.085-.275-.133-.545-.133v-.346h4.724v.346c-.346.029-.516.123-.516.28 0 .118.123.332.374.64.251.303 1.27 1.526 3.061 3.662 1.791 2.137 4.283 5.15 7.476 9.035h.057v-12.963c0-.26-.047-.431-.147-.521-.095-.085-.294-.133-.588-.133v-.346h3.634v.346c-.294 0-.493.048-.588.133-.1.09-.147.261-.147.521v15.516c0 .261.047.431.147.521.095.085.294.133.588.133v.346h-4.094v-.346c.251-.01.426-.038.526-.076.104-.043.156-.118.156-.232 0-.042-.1-.189-.298-.436-.199-.246-.559-.677-1.076-1.289-.521-.616-1.616-1.938-3.293-3.966s-4.041-4.885-7.092-8.575h-.057v13.919c0 .261.047.431.137.521.095.085.275.133.545.133zm36.008-18.198v3.501h-.336c-.052-.279-.147-.464-.27-.55-.123-.09-.322-.133-.587-.133h-11.593v5.51h7.732c.27 0 .464-.047.583-.137.123-.095.208-.284.265-.569h.346v3.52h-.346c-.057-.275-.142-.464-.265-.559-.118-.099-.313-.147-.583-.147h-7.732v5.624h11.882c.28 0 .474-.052.592-.152.114-.104.199-.336.256-.696h.346v3.667h-.346c-.057-.279-.142-.464-.265-.55-.118-.09-.313-.133-.583-.133h-14.839v-.346c.213 0 .36-.043.445-.133.081-.09.123-.26.123-.521v-15.516c0-.26-.043-.431-.123-.521-.085-.09-.232-.133-.445-.133v-.346h14.55c.265 0 .464-.042.587-.133.123-.085.218-.27.27-.549zm20.012 1.251-1.497 3.648-.28-.18c.038-.114.057-.265.057-.46 0-.279-.322-.549-.967-.81-.644-.265-1.45-.483-2.43-.654-.976-.171-1.853-.256-2.63-.256-1.175 0-2.189.142-3.046.431-.858.284-1.511.668-1.961 1.147-.455.474-.682.981-.682 1.516 0 1.133.507 1.815 1.521 2.052 1.014.232 2.724.412 5.131.526 2.402.114 4.217.478 5.444 1.085s1.843 1.8 1.843 3.587c0 .824-.185 1.573-.549 2.241-.365.673-.886 1.26-1.564 1.762-.677.507-1.478.896-2.393 1.161-.919.27-1.928.412-3.032.431-.767 0-1.445-.028-2.028-.085-.583-.052-1.142-.147-1.672-.279-.531-.128-1.18-.317-1.938-.573-.398-.138-.711-.256-.938-.356-.227-.095-.445-.199-.654-.308-.209-.104-.384-.185-.531-.237-.152-.047-.313-.076-.488-.076-.137 0-.241.033-.313.099-.071.066-.166.175-.284.336l-.346-.142 1.9-3.79.294.208c-.076.185-.114.375-.114.569 0 .313.355.673 1.066 1.076.706.403 1.602.739 2.686 1.014 1.08.27 2.151.407 3.203.407 1.104 0 2.056-.138 2.866-.407.81-.275 1.44-.663 1.881-1.175.445-.507.668-1.09.668-1.748 0-1.165-.507-1.867-1.521-2.108-1.014-.237-2.729-.417-5.15-.531-2.421-.118-4.236-.474-5.448-1.071-1.213-.597-1.82-1.781-1.82-3.558 0-1.203.355-2.203 1.071-3.004.711-.8 1.691-1.388 2.933-1.767 1.246-.379 2.653-.569 4.216-.569.621 0 1.303.052 2.052.161.753.104 1.478.242 2.184.408.611.128 1.16.256 1.639.384.483.123.753.185.81.185.066 0 .147-.043.242-.123.099-.085.171-.166.218-.251zm32.109-1.251v3.501h-.336c-.052-.279-.147-.464-.27-.55-.123-.09-.322-.133-.587-.133h-11.595v5.51h7.732c.27 0 .464-.047.583-.137.123-.095.208-.284.265-.569h.346v3.52h-.346c-.057-.275-.142-.464-.265-.559-.118-.099-.313-.147-.583-.147h-7.732v5.624h11.882c.28 0 .474-.052.592-.152.114-.104.199-.336.256-.696h.346v3.667h-.346c-.057-.279-.142-.464-.265-.55-.118-.09-.313-.133-.583-.133h-14.839v-.346c.213 0 .36-.043.445-.133.081-.09.123-.26.123-.521v-15.516c0-.26-.043-.431-.123-.521-.085-.09-.232-.133-.445-.133v-.346h14.55c.265 0 .464-.042.587-.133.123-.085.218-.27.27-.549zm8.201 18.198h-3.53v-.346c.27 0 .45-.047.545-.133.09-.09.138-.26.138-.521v-15.516c0-.26-.047-.431-.138-.521-.095-.085-.275-.133-.545-.133v-.346h4.724v.346c-.346.029-.517.123-.517.28 0 .118.123.332.374.64.251.303 1.27 1.526 3.061 3.662 1.791 2.137 4.283 5.15 7.476 9.035h.057v-12.963c0-.26-.047-.431-.147-.521-.095-.085-.294-.133-.588-.133v-.346h3.634v.346c-.294 0-.493.048-.588.133-.099.09-.147.261-.147.521v15.516c0 .261.047.431.147.521.095.085.294.133.588.133v.346h-4.094v-.346c.251-.01.426-.038.526-.076.104-.043.156-.118.156-.232 0-.042-.099-.189-.298-.436-.199-.246-.559-.677-1.075-1.289-.521-.616-1.616-1.938-3.293-3.966s-4.041-4.885-7.092-8.575h-.057v13.919c0 .261.047.431.138.521.095.085.275.133.545.133zm49.941-19.364-1.762 3.762-.36-.209c.01-.066.014-.123.019-.175.005-.047.01-.104.01-.156 0-.289-.37-.644-1.104-1.066-.734-.417-1.729-.791-2.985-1.109s-2.606-.479-4.046-.479c-1.156 0-2.217.156-3.174.464-.957.313-1.701.753-2.227 1.326s-.791 1.242-.791 2c0 1.241.582 2.009 1.748 2.312 1.166.299 3.231.573 6.192.82 2.961.242 5.183.734 6.661 1.469 1.483.739 2.222 2.108 2.222 4.117 0 1.398-.417 2.591-1.255 3.582-.839.99-1.99 1.734-3.459 2.236-1.474.497-3.127.749-4.97.749-1.431 0-2.734-.119-3.904-.36-1.17-.242-2.142-.526-2.914-.848s-1.431-.64-1.98-.943c-.55-.308-.867-.459-.953-.459-.175 0-.308.033-.403.104-.09.071-.185.18-.275.327l-.374-.18 2.075-4.056.332.194c-.009.038-.028.133-.061.284-.033.152-.047.232-.047.232 0 .412.431.886 1.293 1.412.867.531 1.961.976 3.283 1.336s2.667.54 4.036.54c1.507 0 2.786-.171 3.838-.507s1.843-.806 2.379-1.403c.535-.597.805-1.284.805-2.061 0-1.279-.606-2.066-1.824-2.369-1.217-.299-3.283-.559-6.202-.782-2.914-.223-5.112-.711-6.586-1.464s-2.212-2.175-2.212-4.255c0-1.166.393-2.227 1.184-3.174.791-.948 1.895-1.691 3.312-2.227 1.412-.535 3.004-.805 4.771-.805 2.09 0 4.113.341 6.074 1.028.488.156 1.038.365 1.634.63.602.265.943.398 1.014.398.123 0 .336-.119.654-.351zm20.809 1.166v3.501h-.336c-.052-.279-.147-.464-.27-.55-.123-.09-.322-.133-.587-.133h-11.594v5.51h7.732c.27 0 .464-.047.583-.137.123-.095.208-.284.265-.569h.346v3.52h-.346c-.057-.275-.142-.464-.265-.559-.118-.099-.313-.147-.583-.147h-7.732v5.624h11.882c.28 0 .474-.052.592-.152.114-.104.199-.336.256-.696h.346v3.667h-.346c-.057-.279-.142-.464-.265-.55-.118-.09-.313-.133-.583-.133h-14.839v-.346c.213 0 .36-.043.445-.133.081-.09.123-.26.123-.521v-15.516c0-.26-.043-.431-.123-.521-.085-.09-.232-.133-.445-.133v-.346h14.55c.265 0 .464-.042.587-.133.123-.085.218-.27.27-.549zm15.251 9.523h6.761v.346c-.27.028-.403.17-.403.431v3.629c0 .388.142.606.431.654v.512c-1.308.995-2.625 1.805-3.956 2.435s-2.961.948-4.889.948c-1.312 0-2.572-.199-3.771-.592-1.203-.393-2.274-.971-3.207-1.739-.938-.768-1.672-1.706-2.217-2.814-.54-1.104-.81-2.331-.81-3.686 0-1.905.431-3.558 1.298-4.96.867-1.403 2.056-2.468 3.572-3.193 1.521-.725 3.222-1.09 5.112-1.09 1.255 0 2.411.161 3.468.479s2.004.687 2.852 1.094c.848.412 1.327.621 1.436.621.085 0 .166-.024.246-.062.076-.043.152-.095.223-.156.066-.057.128-.114.185-.156l.294.138-2.028 3.274-.28-.18c.076-.332.114-.54.114-.62 0-.133-.194-.332-.583-.597-.389-.27-.876-.531-1.464-.782-.587-.246-1.284-.464-2.09-.644-.805-.18-1.625-.27-2.459-.27-1.435 0-2.724.279-3.866.839-1.142.559-2.037 1.369-2.677 2.435-.644 1.061-.967 2.331-.967 3.8 0 1.445.36 2.672 1.085 3.691.72 1.019 1.682 1.777 2.89 2.279 1.208.507 2.511.758 3.909.758.583 0 1.246-.09 1.985-.275s1.445-.427 2.108-.72c.668-.298 1.222-.606 1.668-.929v-2.757h-3.97c-.27 0-.464.042-.587.133-.128.085-.218.27-.275.549h-.332v-3.501h.332c.057.279.147.464.275.55.123.085.317.128.587.128zm11.537-8.841h3.97v.346c-.322 0-.535.043-.64.128-.099.081-.151.256-.151.526v11.11c0 .858.218 1.549.659 2.07.44.521 1.095.9 1.957 1.133.867.232 1.985.346 3.354.346s2.483-.114 3.35-.346c.862-.232 1.516-.606 1.957-1.123.44-.521.659-1.213.659-2.08v-11.11c0-.26-.043-.431-.123-.521-.085-.09-.232-.133-.445-.133v-.346h3.525v.346c-.204 0-.351.048-.436.133-.09.09-.133.261-.133.521v10.954c0 3.894-2.786 5.842-8.353 5.842-1.805 0-3.335-.208-4.581-.63-1.251-.422-2.194-1.066-2.824-1.933-.635-.862-.952-1.957-.952-3.279v-10.954c0-.27-.052-.445-.152-.526-.104-.085-.318-.128-.639-.128zm27.479 17.516h-4.202v-.346c.37 0 .616-.043.734-.128.118-.081.18-.256.18-.526v-15.516c0-.27-.062-.445-.18-.526-.118-.085-.365-.128-.734-.128v-.346h11.006c2.037 0 3.582.431 4.638 1.298 1.057.867 1.583 2.061 1.583 3.577 0 .967-.208 1.815-.63 2.544-.422.73-1.004 1.294-1.744 1.687-.739.393-1.578.616-2.511.663l4.231 6.832c.133.213.294.36.493.445.199.081.497.123.895.123v.346h-4.719v-.346c.289-.01.483-.047.592-.119.104-.071.156-.18.156-.327 0-.09-.061-.237-.185-.441-.128-.203-.313-.497-.564-.876l-3.496-5.472h-6.444v6.581c0 .27.057.445.175.531.114.081.355.123.725.123zm-.9-15.379v5.69h8.552c.72 0 1.398-.237 2.033-.706.635-.474.952-1.184.952-2.141 0-.943-.365-1.653-1.09-2.127-.725-.478-2.009-.715-3.852-.715h-6.595zm23.125 15.379h-3.97v-.346c.322 0 .535-.043.639-.128.099-.081.152-.256.152-.526v-15.516c0-.27-.052-.445-.152-.526-.104-.085-.317-.128-.639-.128v-.346h3.97v.346c-.322 0-.535.043-.639.128-.099.081-.152.256-.152.526v15.516c0 .27.052.445.152.526.104.085.318.128.639.128zm6.122-1v-15.516c0-.27-.057-.445-.166-.526-.114-.085-.327-.128-.639-.128v-.346h10.186c1.094 0 2.122.185 3.084.55s1.81.91 2.544 1.63c.739.72 1.312 1.606 1.729 2.648.417 1.047.625 2.246.625 3.596 0 1.933-.327 3.586-.985 4.96-.659 1.379-1.597 2.407-2.819 3.099-1.223.687-2.672 1.033-4.359 1.033h-10.006v-.346c.313 0 .526-.043.639-.128.11-.081.167-.256.167-.526zm2.387-14.379v13.242h6.761c1.8 0 3.226-.569 4.264-1.706 1.042-1.142 1.563-2.871 1.563-5.193 0-1.203-.218-2.284-.659-3.236-.44-.953-1.147-1.711-2.123-2.269-.976-.559-2.236-.839-3.785-.839h-6.021zm25.547.346-3.388 8.206h6.903zm-5.041 15.033h-3.804v-.346c.232 0 .412-.047.55-.147.133-.095.251-.265.355-.507l6.292-15.251c.09-.26.138-.431.138-.516 0-.242-.265-.374-.791-.403v-.346h4.776v.346c-.497.029-.748.147-.748.346 0 .095.052.26.151.502l6.709 15.587c.047.119.099.204.151.246.057.048.118.081.19.095.071.009.227.028.478.047v.346h-4.027v-.346c.436 0 .654-.123.654-.36 0-.123-.071-.332-.204-.635-.133-.299-.625-1.426-1.478-3.378h-8.542c-.398 1-.734 1.829-1.014 2.492-.28.659-.44 1.047-.493 1.166-.052.114-.076.232-.076.355 0 .118.048.204.147.256.095.052.294.085.587.104v.347zm18.179-1v-15.516c0-.27-.057-.445-.166-.526-.114-.085-.327-.128-.64-.128v-.346h10.186c1.094 0 2.123.185 3.084.55.962.365 1.81.91 2.544 1.63.739.72 1.312 1.606 1.729 2.648.417 1.047.625 2.246.625 3.596 0 1.933-.327 3.586-.985 4.96-.659 1.379-1.597 2.407-2.819 3.099-1.223.687-2.672 1.033-4.359 1.033h-10.006v-.346c.313 0 .526-.043.64-.128.11-.081.167-.256.167-.526zm2.387-14.379v13.242h6.761c1.8 0 3.226-.569 4.264-1.706 1.042-1.142 1.563-2.871 1.563-5.193 0-1.203-.218-2.284-.659-3.236-.44-.953-1.147-1.711-2.123-2.269-.976-.559-2.236-.839-3.785-.839h-6.021zm-433.113 49.581h-4.283v-.346c.265 0 .45-.047.545-.133.1-.09.147-.26.147-.521v-18.904c0-.26-.047-.431-.147-.521-.095-.085-.28-.133-.545-.133v-.332h4.283v.332c-.265 0-.45.047-.545.133-.1.09-.147.26-.147.521v18.904c0 .261.047.431.147.521.095.085.28.133.545.133z"/><path d="m118.406 635.537h-3.53v-.346c.27 0 .45-.047.545-.133.09-.09.137-.26.137-.521v-15.516c0-.26-.047-.431-.137-.521-.095-.085-.275-.133-.545-.133v-.346h4.724v.346c-.346.029-.517.123-.517.28 0 .118.123.332.374.64.251.303 1.27 1.526 3.061 3.662 1.791 2.137 4.283 5.15 7.476 9.035h.057v-12.963c0-.26-.047-.431-.147-.521-.095-.085-.294-.133-.588-.133v-.346h3.634v.346c-.294 0-.493.048-.588.133-.1.09-.147.261-.147.521v15.516c0 .261.047.431.147.521.095.085.294.133.588.133v.346h-4.094v-.346c.251-.01.426-.038.526-.076.104-.042.156-.118.156-.232 0-.042-.1-.189-.298-.436-.199-.246-.559-.677-1.075-1.289-.521-.616-1.616-1.938-3.293-3.966s-4.041-4.885-7.092-8.575h-.057v13.92c0 .261.047.431.137.521.095.085.275.133.545.133.001 0 .001.346.001.346zm48.582 0h-3.876v-.346c.313 0 .526-.043.639-.128.109-.081.166-.256.166-.526v-15.516c0-.27-.057-.445-.166-.526-.114-.085-.327-.128-.639-.128v-.346h14.673c.265 0 .464-.047.588-.137.128-.095.218-.275.27-.545h.336v3.501h-.336c-.052-.27-.142-.45-.27-.545-.123-.09-.322-.138-.588-.138h-11.48v5.51h7.618c.26 0 .455-.047.578-.138.123-.095.213-.284.27-.569h.346v3.52h-.346c-.057-.275-.147-.464-.27-.559-.123-.099-.318-.147-.578-.147h-7.618v6.761c0 .261.047.431.137.521.095.085.275.133.545.133v.348zm40.845-8.765c0 1.459.36 2.715 1.085 3.767.72 1.047 1.663 1.833 2.824 2.359 1.161.521 2.388.782 3.686.782.933 0 1.838-.142 2.719-.431.881-.284 1.682-.725 2.416-1.317.73-.592 1.303-1.317 1.715-2.18.412-.857.616-1.852.616-2.98 0-1.469-.36-2.729-1.085-3.771-.72-1.047-1.649-1.829-2.786-2.345-1.142-.516-2.341-.777-3.596-.777-1.298 0-2.525.261-3.686.777s-2.104 1.298-2.824 2.345c-.724 1.042-1.084 2.302-1.084 3.771zm-2.388.005c0-1.848.441-3.463 1.327-4.837.881-1.374 2.085-2.416 3.601-3.127 1.521-.715 3.184-1.071 4.998-1.071 1.341 0 2.62.204 3.838.611 1.217.408 2.284 1 3.193 1.777.91.777 1.62 1.725 2.122 2.838.507 1.118.758 2.388.758 3.809 0 1.426-.251 2.696-.758 3.804-.502 1.114-1.213 2.056-2.127 2.843-.919.781-1.98 1.374-3.193 1.781s-2.492.611-3.833.611c-1.814 0-3.477-.355-4.998-1.071-1.516-.711-2.72-1.753-3.601-3.127-.886-1.374-1.327-2.989-1.327-4.841zm52.353 8.76h-4.202v-.346c.37 0 .616-.043.734-.128.118-.081.18-.256.18-.526v-15.516c0-.27-.062-.445-.18-.526-.118-.085-.365-.128-.734-.128v-.346h11.006c2.037 0 3.582.431 4.638 1.298 1.057.867 1.583 2.061 1.583 3.577 0 .967-.208 1.815-.63 2.544-.422.73-1.004 1.293-1.744 1.687-.739.393-1.578.616-2.511.663l4.231 6.832c.133.213.294.36.493.445.199.081.497.123.896.123v.346h-4.719v-.346c.289-.01.483-.047.592-.119.104-.071.156-.18.156-.327 0-.09-.061-.237-.185-.441-.128-.203-.313-.497-.564-.877l-3.496-5.472h-6.443v6.581c0 .27.057.445.175.531.114.081.355.123.725.123zm-.9-15.379v5.69h8.552c.72 0 1.398-.237 2.033-.706.635-.474.952-1.184.952-2.141 0-.943-.365-1.653-1.09-2.127-.725-.479-2.009-.716-3.852-.716zm47.469 15.379h-3.871v-.346c.322 0 .535-.043.639-.128.099-.081.152-.256.152-.526v-15.516c0-.27-.052-.445-.152-.526-.104-.085-.318-.128-.639-.128v-.346h4.942v.346c-.28.019-.46.057-.55.119-.085.062-.133.156-.133.284 0 .066.099.299.294.696.194.398.46.924.791 1.587.332.663.981 1.971 1.952 3.928.967 1.957 1.933 3.951 2.904 5.975 2.279-4.662 3.8-7.827 4.567-9.495.768-1.663 1.151-2.554 1.151-2.663 0-.26-.284-.403-.858-.431v-.346h5.41v.346c-.37 0-.616.043-.734.128-.118.081-.18.256-.18.526v15.516c0 .27.062.445.18.526.118.085.365.128.734.128v.346h-4.217l.237-.346c.37 0 .611-.043.725-.128.118-.081.175-.256.175-.526v-13.754h-.057l-7.272 14.862-7.05-14.862h-.057v13.754c0 .27.062.445.18.526.118.085.365.128.734.128zm52.988-15.033-3.388 8.206h6.903zm-5.041 15.033h-3.804v-.346c.232 0 .412-.047.55-.147.133-.095.251-.265.355-.507l6.292-15.251c.09-.26.138-.431.138-.516 0-.242-.265-.374-.791-.403v-.346h4.776v.346c-.497.029-.748.147-.748.346 0 .095.052.26.151.502l6.709 15.588c.047.119.099.204.151.246.057.048.118.081.19.095.071.009.227.028.478.047v.346h-4.027v-.346c.436 0 .654-.123.654-.36 0-.123-.071-.332-.204-.635-.133-.298-.625-1.426-1.478-3.378h-8.542c-.398 1-.734 1.829-1.014 2.492-.28.659-.44 1.047-.493 1.166-.052.114-.076.232-.076.356 0 .118.048.203.147.256.095.052.294.085.587.104v.345zm3.184-19.184 2.568-4.065h3.861l-4.041 4.065zm37.618 4.487h-.346v-3.501h.346c.057.279.147.464.27.549.123.09.317.133.578.133h14.848c.261 0 .455-.042.578-.133.123-.085.213-.27.27-.549h.346v3.501h-.346c-.057-.279-.147-.464-.27-.55-.123-.09-.318-.133-.578-.133h-6.23v14.379c0 .27.052.445.151.526.104.085.318.128.64.128v.346h-3.97v-.346c.322 0 .535-.043.64-.128.099-.081.152-.256.152-.526v-14.379h-6.23c-.261 0-.455.043-.578.133-.124.086-.214.27-.271.55zm49.26 14.697h-3.97v-.346c.322 0 .535-.043.639-.128.099-.081.152-.256.152-.526v-15.516c0-.27-.052-.445-.152-.526-.104-.085-.317-.128-.639-.128v-.346h3.97v.346c-.322 0-.535.043-.639.128-.099.081-.152.256-.152.526v15.516c0 .27.052.445.152.526.104.085.317.128.639.128zm46.317-16.256-1.876 3.402-.232-.142c.071-.222.109-.431.109-.625 0-.185-.308-.445-.929-.782-.621-.336-1.393-.63-2.312-.881s-1.81-.375-2.672-.375c-1.426 0-2.701.27-3.833.806-1.128.535-2.018 1.331-2.677 2.383-.659 1.057-.986 2.307-.986 3.762 0 1.388.327 2.596.981 3.634.649 1.033 1.544 1.829 2.681 2.383 1.142.555 2.388.834 3.748.834.578 0 1.227-.085 1.952-.256s1.431-.408 2.108-.701c.682-.294 1.232-.611 1.653-.952.422-.336.63-.668.63-.99 0-.185-.071-.365-.223-.54l.28-.223 2.388 3.009-.279.166c-.232-.166-.426-.247-.597-.247-.071 0-.422.19-1.047.569-.626.384-1.241.73-1.848 1.042-.602.308-1.336.597-2.198.862s-1.763.398-2.705.398c-1.332 0-2.606-.208-3.819-.625s-2.274-1.028-3.194-1.833c-.914-.806-1.625-1.772-2.137-2.904-.507-1.137-.763-2.407-.763-3.814 0-1.672.408-3.193 1.223-4.553s1.952-2.426 3.421-3.193c1.469-.768 3.122-1.151 4.961-1.151.929 0 1.819.095 2.672.279.858.185 1.578.393 2.165.621.587.232 1.113.459 1.577.687s.711.341.749.341c.138 0 .246-.019.327-.062s.166-.119.256-.228c.095-.114.161-.185.208-.223zm35.734 1.223-3.388 8.206h6.903zm-5.042 15.033h-3.804v-.346c.232 0 .412-.047.55-.147.133-.095.251-.265.355-.507l6.292-15.251c.09-.26.138-.431.138-.516 0-.242-.265-.374-.791-.403v-.346h4.776v.346c-.497.029-.748.147-.748.346 0 .095.052.26.151.502l6.709 15.588c.047.119.099.204.151.246.057.048.119.081.19.095.071.009.227.028.479.047v.346h-4.027v-.346c.436 0 .654-.123.654-.36 0-.123-.071-.332-.204-.635-.133-.298-.625-1.426-1.478-3.378h-8.542c-.398 1-.734 1.829-1.014 2.492-.279.659-.44 1.047-.493 1.166-.052.114-.076.232-.076.356 0 .118.048.203.147.256.095.052.294.085.587.104v.345z"/><path d="m216.559 311.273c31.74 4.457 60.605.299 86.008-14.261l-.001 216.838c-70.918-13.817-74.468-76.312-79.012-151.763-1.067-17.736-3.126-34.804-6.995-50.814z"/></g><path d="m388.098 311.754c-31.74 4.457-60.608.297-86.011-14.262v216.839c70.918-13.817 74.472-76.311 79.016-151.763 1.068-17.737 3.126-34.805 6.995-50.814z" fill="#016699"/><path d="m302.57 336.32c31.504 0 57.049 25.545 57.049 57.049s-25.545 57.049-57.049 57.049-57.049-25.545-57.049-57.049 25.545-57.049 57.049-57.049zm0 23.162c18.709 0 33.887 15.178 33.887 33.887s-15.178 33.887-33.887 33.887-33.887-15.178-33.887-33.887c0-18.615 15.338-33.887 33.887-33.887z" fill="#f6f6f6"/><path d="m265.383 349.794c22.669-18.264 51.516-18.541 74.376 0l-14.534 18.378c-15.394-11.651-30.453-11.293-45.21 0z" fill="#9c9e9f"/><path d="m306.788 335.747c.034-.333-.671-.044-1.006-.06-13.982-.717-28.113 3.887-40.508 13.94l14.757 18.66c7.925-5.998 15.766-8.862 23.521-8.733.25.004.725.269.75.022z" fill="#007cc2"/><path d="m358.082 122.68c15.555-5.399 31.603.128 35.843 12.345s-4.932 26.498-20.487 31.897-31.602-.128-35.843-12.345c-4.24-12.217 4.932-26.497 20.487-31.897 0 .001 0 .001 0 0z" fill="#6e7071"/><path d="m207.743 448.942c-251.358 99.162 218.644 117.378 274.307 82.939-73.86 37.534-236.409 44.889-329.389 17.607-92.977-27.281-118.221-77.304 55.082-100.546z" fill="url(#b)"/><path d="m310.737 298.099c43.452-266.051-212.289 127.384-211.217 192.677 5.574-82.467 82.32-225.512 153.203-291.247 70.88-65.732 126.642-61.806 58.014 98.57z" fill="url(#c)"/><path d="m407.26 461.398c217.699 166.5-12.437-251.396-71.489-281.736 71.265 44.531 162.72 181.914 187.675 276.977 24.953 95.06-5.299 143.171-116.186 4.759z" fill="url(#d)"/><path d="m363.467 303.473v23.599h24.779v-23.599z" fill="#3b3b3b"/><path d="m343.408 271.614v10.62h11.21v-10.62z" fill="#565757"/><path d="m343.998 309.372v11.21h13.569v-11.21z" fill="none"/><path d="m388.246 295.803v12.389h12.389v-12.389z" fill="#1b1918"/><path d="m385.887 337.102v15.929h15.929v-15.929z" fill="#9c9e9f"/><path d="m415.975 357.161v-11.8h-11.21v11.8z" fill="#6e7071"/><path d="m352.848 292.263v9.44h7.67v-9.44z" fill="#9c9e9f"/><path d="m335.148 291.673v13.569h12.39v-13.569z" fill="#9c9e9f"/><path d="m302.697 359.917c-.008 0-.015-.001-.023-.001-19.173 0-34.716 15.543-34.716 34.716s15.543 34.716 34.716 34.716 34.716-15.543 34.716-34.716c0-19.165-15.53-34.703-34.693-34.715z" fill="#007cc2"/><path d="m337.39 394.609c0 18.973-15.223 34.379-34.12 34.698l.225-69.351c20.17 1.187 33.895 15.808 33.895 34.653z" fill="#026699"/><path d="m299.146 336.151c-.034-.328.661-.043.991-.059 13.771-.706 28.221 3.163 40.428 13.064l-15.864 19.977c-7.805-5.908-14.73-9.661-22.368-9.535-.246.004-.714.265-.738.022z" fill="#026699"/><path d="m292.098 325.644v67.033h22.344v-67.033z" fill="#f6f6f6"/></svg>